<?xml version="1.0" encoding="UTF-8"?>
<svg viewBox="0 0 1440 900" xmlns="http://www.w3.org/2000/svg">
  <!-- Repository Management Overview -->
  <defs>
    <filter id="cardShadow">
      <feDropShadow dx="0" dy="2" stdDeviation="4" flood-opacity="0.1"/>
    </filter>
    <linearGradient id="activeGradient" x1="0%" y1="0%" x2="100%" y2="0%">
      <stop offset="0%" style="stop-color:#10b981;stop-opacity:1" />
      <stop offset="100%" style="stop-color:#059669;stop-opacity:1" />
    </linearGradient>
  </defs>
  
  <!-- Background -->
  <rect width="1440" height="900" fill="#f9fafb"/>
  
  <!-- Header -->
  <rect width="1440" height="64" fill="#ffffff" filter="url(#cardShadow)"/>
  <text x="24" y="40" font-family="system-ui, -apple-system, sans-serif" font-size="20" font-weight="600">Claude Flow</text>
  
  <!-- Breadcrumb -->
  <text x="200" y="40" font-family="system-ui" font-size="14" fill="#6b7280">Projects</text>
  <text x="260" y="40" font-family="system-ui" font-size="14" fill="#6b7280">/</text>
  <text x="280" y="40" font-family="system-ui" font-size="14" fill="#6b7280">E-commerce Platform</text>
  <text x="430" y="40" font-family="system-ui" font-size="14" fill="#6b7280">/</text>
  <text x="450" y="40" font-family="system-ui" font-size="14" fill="#111827">Repositories</text>
  
  <!-- Page Header -->
  <g transform="translate(24, 88)">
    <text x="0" y="32" font-family="system-ui" font-size="28" font-weight="700">Repository Management</text>
    <text x="0" y="60" font-family="system-ui" font-size="16" fill="#6b7280">Manage your project repositories and their configurations</text>
    
    <!-- Action Buttons -->
    <g transform="translate(1100, 0)">
      <rect x="0" y="20" width="140" height="40" rx="6" fill="#3b82f6" cursor="pointer"/>
      <text x="70" y="44" font-family="system-ui" font-size="14" fill="#ffffff" text-anchor="middle">+ Add Repository</text>
      
      <rect x="152" y="20" width="116" height="40" rx="6" fill="#ffffff" stroke="#e5e7eb" cursor="pointer"/>
      <text x="210" y="44" font-family="system-ui" font-size="14" text-anchor="middle">Import Repos</text>
    </g>
  </g>
  
  <!-- Main Content -->
  <g transform="translate(24, 200)">
    <!-- Stats Row -->
    <g>
      <rect x="0" y="0" width="340" height="100" rx="8" fill="#ffffff" filter="url(#cardShadow)"/>
      <rect x="0" y="0" width="8" height="100" rx="8 0 0 8" fill="#3b82f6"/>
      <text x="24" y="32" font-family="system-ui" font-size="14" fill="#6b7280">Total Repositories</text>
      <text x="24" y="60" font-family="system-ui" font-size="28" font-weight="700">4</text>
      <text x="24" y="80" font-family="system-ui" font-size="12" fill="#6b7280">Across 3 platforms</text>
      
      <rect x="356" y="0" width="340" height="100" rx="8" fill="#ffffff" filter="url(#cardShadow)"/>
      <rect x="356" y="0" width="8" height="100" rx="8 0 0 8" fill="#10b981"/>
      <text x="380" y="32" font-family="system-ui" font-size="14" fill="#6b7280">Active Repositories</text>
      <text x="380" y="60" font-family="system-ui" font-size="28" font-weight="700">3</text>
      <text x="380" y="80" font-family="system-ui" font-size="12" fill="#10b981">75% active</text>
      
      <rect x="712" y="0" width="340" height="100" rx="8" fill="#ffffff" filter="url(#cardShadow)"/>
      <rect x="712" y="0" width="8" height="100" rx="8 0 0 8" fill="#f59e0b"/>
      <text x="736" y="32" font-family="system-ui" font-size="14" fill="#6b7280">Total Commits</text>
      <text x="736" y="60" font-family="system-ui" font-size="28" font-weight="700">1,247</text>
      <text x="736" y="80" font-family="system-ui" font-size="12" fill="#6b7280">Last 30 days: 89</text>
      
      <rect x="1068" y="0" width="324" height="100" rx="8" fill="#ffffff" filter="url(#cardShadow)"/>
      <rect x="1068" y="0" width="8" height="100" rx="8 0 0 8" fill="#8b5cf6"/>
      <text x="1092" y="32" font-family="system-ui" font-size="14" fill="#6b7280">Active Branches</text>
      <text x="1092" y="60" font-family="system-ui" font-size="28" font-weight="700">12</text>
      <text x="1092" y="80" font-family="system-ui" font-size="12" fill="#6b7280">4 feature, 8 fix</text>
    </g>
    
    <!-- Repository List -->
    <g transform="translate(0, 120)">
      <rect x="0" y="0" width="1392" height="520" rx="8" fill="#ffffff" filter="url(#cardShadow)"/>
      
      <!-- Header -->
      <g transform="translate(20, 20)">
        <text x="0" y="20" font-family="system-ui" font-size="18" font-weight="600">All Repositories</text>
        
        <!-- Search and Filter -->
        <rect x="880" y="0" width="240" height="32" rx="6" fill="#f3f4f6"/>
        <text x="892" y="21" font-family="system-ui" font-size="14" fill="#9ca3af">Search repositories...</text>
        
        <rect x="1132" y="0" width="100" height="32" rx="6" fill="#ffffff" stroke="#e5e7eb"/>
        <text x="1182" y="21" font-family="system-ui" font-size="14" text-anchor="middle">Filter ▼</text>
        
        <rect x="1244" y="0" width="108" height="32" rx="6" fill="#ffffff" stroke="#e5e7eb"/>
        <text x="1298" y="21" font-family="system-ui" font-size="14" text-anchor="middle">Sort: Recent</text>
      </g>
      
      <!-- Table Header -->
      <rect x="0" y="60" width="1392" height="40" fill="#f9fafb"/>
      <text x="20" y="84" font-family="system-ui" font-size="13" font-weight="500" fill="#6b7280">REPOSITORY</text>
      <text x="400" y="84" font-family="system-ui" font-size="13" font-weight="500" fill="#6b7280">STATUS</text>
      <text x="540" y="84" font-family="system-ui" font-size="13" font-weight="500" fill="#6b7280">BRANCH</text>
      <text x="760" y="84" font-family="system-ui" font-size="13" font-weight="500" fill="#6b7280">LAST COMMIT</text>
      <text x="980" y="84" font-family="system-ui" font-size="13" font-weight="500" fill="#6b7280">ACTIVITY</text>
      <text x="1200" y="84" font-family="system-ui" font-size="13" font-weight="500" fill="#6b7280">ACTIONS</text>
      
      <!-- Repository Rows -->
      <!-- Frontend Repo -->
      <g transform="translate(0, 100)">
        <rect x="0" y="0" width="1392" height="80" fill="#ffffff" stroke="#f3f4f6" stroke-width="1"/>
        <rect x="0" y="0" width="4" height="80" fill="#3b82f6"/>
        
        <g transform="translate(20, 20)">
          <rect x="0" y="0" width="40" height="40" rx="8" fill="#3b82f6"/>
          <text x="20" y="26" font-family="system-ui" font-size="18" fill="#ffffff" text-anchor="middle">⚛</text>
          <text x="52" y="16" font-family="system-ui" font-size="15" font-weight="600">ecommerce-frontend</text>
          <text x="52" y="34" font-family="system-ui" font-size="13" fill="#6b7280">github.com/org/ecommerce-frontend</text>
        </g>
        
        <g transform="translate(400, 28)">
          <rect x="0" y="0" width="60" height="24" rx="12" fill="#dcfce7"/>
          <text x="30" y="16" font-family="system-ui" font-size="12" text-anchor="middle" fill="#166534">Active</text>
        </g>
        
        <text x="540" y="48" font-family="system-ui" font-size="14" fill="#374151">feature/payment-integration</text>
        <text x="760" y="48" font-family="system-ui" font-size="14" fill="#374151">2 hours ago</text>
        
        <!-- Activity Sparkline -->
        <g transform="translate(980, 30)">
          <rect x="0" y="16" width="3" height="4" fill="#e5e7eb"/>
          <rect x="5" y="12" width="3" height="8" fill="#e5e7eb"/>
          <rect x="10" y="8" width="3" height="12" fill="#3b82f6"/>
          <rect x="15" y="10" width="3" height="10" fill="#3b82f6"/>
          <rect x="20" y="4" width="3" height="16" fill="#3b82f6"/>
          <rect x="25" y="6" width="3" height="14" fill="#3b82f6"/>
          <rect x="30" y="0" width="3" height="20" fill="#10b981"/>
        </g>
        
        <g transform="translate(1200, 20)">
          <rect x="0" y="0" width="80" height="32" rx="6" fill="#ffffff" stroke="#e5e7eb" cursor="pointer"/>
          <text x="40" y="21" font-family="system-ui" font-size="13" text-anchor="middle">Manage</text>
          
          <rect x="92" y="0" width="60" height="32" rx="6" fill="#ffffff" stroke="#e5e7eb" cursor="pointer"/>
          <text x="122" y="21" font-family="system-ui" font-size="13" text-anchor="middle">Clone</text>
        </g>
      </g>
      
      <!-- Backend Repo -->
      <g transform="translate(0, 180)">
        <rect x="0" y="0" width="1392" height="80" fill="#ffffff" stroke="#f3f4f6" stroke-width="1"/>
        <rect x="0" y="0" width="4" height="80" fill="#10b981"/>
        
        <g transform="translate(20, 20)">
          <rect x="0" y="0" width="40" height="40" rx="8" fill="#10b981"/>
          <text x="20" y="26" font-family="system-ui" font-size="18" fill="#ffffff" text-anchor="middle">⚙</text>
          <text x="52" y="16" font-family="system-ui" font-size="15" font-weight="600">ecommerce-api</text>
          <text x="52" y="34" font-family="system-ui" font-size="13" fill="#6b7280">github.com/org/ecommerce-api</text>
        </g>
        
        <g transform="translate(400, 28)">
          <rect x="0" y="0" width="60" height="24" rx="12" fill="#dcfce7"/>
          <text x="30" y="16" font-family="system-ui" font-size="12" text-anchor="middle" fill="#166534">Active</text>
        </g>
        
        <text x="540" y="48" font-family="system-ui" font-size="14" fill="#374151">main</text>
        <text x="760" y="48" font-family="system-ui" font-size="14" fill="#374151">1 day ago</text>
        
        <!-- Activity Sparkline -->
        <g transform="translate(980, 30)">
          <rect x="0" y="14" width="3" height="6" fill="#e5e7eb"/>
          <rect x="5" y="10" width="3" height="10" fill="#3b82f6"/>
          <rect x="10" y="12" width="3" height="8" fill="#3b82f6"/>
          <rect x="15" y="8" width="3" height="12" fill="#3b82f6"/>
          <rect x="20" y="6" width="3" height="14" fill="#10b981"/>
          <rect x="25" y="10" width="3" height="10" fill="#3b82f6"/>
          <rect x="30" y="12" width="3" height="8" fill="#3b82f6"/>
        </g>
        
        <g transform="translate(1200, 20)">
          <rect x="0" y="0" width="80" height="32" rx="6" fill="#ffffff" stroke="#e5e7eb" cursor="pointer"/>
          <text x="40" y="21" font-family="system-ui" font-size="13" text-anchor="middle">Manage</text>
          
          <rect x="92" y="0" width="60" height="32" rx="6" fill="#ffffff" stroke="#e5e7eb" cursor="pointer"/>
          <text x="122" y="21" font-family="system-ui" font-size="13" text-anchor="middle">Clone</text>
        </g>
      </g>
      
      <!-- Infrastructure Repo -->
      <g transform="translate(0, 260)">
        <rect x="0" y="0" width="1392" height="80" fill="#ffffff" stroke="#f3f4f6" stroke-width="1"/>
        <rect x="0" y="0" width="4" height="80" fill="#8b5cf6"/>
        
        <g transform="translate(20, 20)">
          <rect x="0" y="0" width="40" height="40" rx="8" fill="#8b5cf6"/>
          <text x="20" y="26" font-family="system-ui" font-size="18" fill="#ffffff" text-anchor="middle">☁</text>
          <text x="52" y="16" font-family="system-ui" font-size="15" font-weight="600">ecommerce-infra</text>
          <text x="52" y="34" font-family="system-ui" font-size="13" fill="#6b7280">gitlab.com/org/ecommerce-infra</text>
        </g>
        
        <g transform="translate(400, 28)">
          <rect x="0" y="0" width="60" height="24" rx="12" fill="#fef3c7"/>
          <text x="30" y="16" font-family="system-ui" font-size="12" text-anchor="middle" fill="#92400e">Setup</text>
        </g>
        
        <text x="540" y="48" font-family="system-ui" font-size="14" fill="#374151">feature/staging-env</text>
        <text x="760" y="48" font-family="system-ui" font-size="14" fill="#374151">3 days ago</text>
        
        <!-- Activity Sparkline -->
        <g transform="translate(980, 30)">
          <rect x="0" y="16" width="3" height="4" fill="#e5e7eb"/>
          <rect x="5" y="16" width="3" height="4" fill="#e5e7eb"/>
          <rect x="10" y="14" width="3" height="6" fill="#e5e7eb"/>
          <rect x="15" y="10" width="3" height="10" fill="#f59e0b"/>
          <rect x="20" y="12" width="3" height="8" fill="#e5e7eb"/>
          <rect x="25" y="16" width="3" height="4" fill="#e5e7eb"/>
          <rect x="30" y="18" width="3" height="2" fill="#e5e7eb"/>
        </g>
        
        <g transform="translate(1200, 20)">
          <rect x="0" y="0" width="80" height="32" rx="6" fill="#ffffff" stroke="#e5e7eb" cursor="pointer"/>
          <text x="40" y="21" font-family="system-ui" font-size="13" text-anchor="middle">Manage</text>
          
          <rect x="92" y="0" width="60" height="32" rx="6" fill="#ffffff" stroke="#e5e7eb" cursor="pointer"/>
          <text x="122" y="21" font-family="system-ui" font-size="13" text-anchor="middle">Clone</text>
        </g>
      </g>
      
      <!-- Mobile Repo -->
      <g transform="translate(0, 340)">
        <rect x="0" y="0" width="1392" height="80" fill="#fef2f2" stroke="#fecaca" stroke-width="1"/>
        <rect x="0" y="0" width="4" height="80" fill="#ef4444"/>
        
        <g transform="translate(20, 20)">
          <rect x="0" y="0" width="40" height="40" rx="8" fill="#f59e0b"/>
          <text x="20" y="26" font-family="system-ui" font-size="18" fill="#ffffff" text-anchor="middle">📱</text>
          <text x="52" y="16" font-family="system-ui" font-size="15" font-weight="600">ecommerce-mobile</text>
          <text x="52" y="34" font-family="system-ui" font-size="13" fill="#6b7280">github.com/org/ecommerce-mobile</text>
        </g>
        
        <g transform="translate(400, 28)">
          <rect x="0" y="0" width="60" height="24" rx="12" fill="#fee2e2"/>
          <text x="30" y="16" font-family="system-ui" font-size="12" text-anchor="middle" fill="#991b1b">Inactive</text>
        </g>
        
        <text x="540" y="48" font-family="system-ui" font-size="14" fill="#374151">develop</text>
        <text x="760" y="48" font-family="system-ui" font-size="14" fill="#374151">2 weeks ago</text>
        
        <!-- Activity Sparkline -->
        <g transform="translate(980, 30)">
          <rect x="0" y="18" width="3" height="2" fill="#e5e7eb"/>
          <rect x="5" y="18" width="3" height="2" fill="#e5e7eb"/>
          <rect x="10" y="18" width="3" height="2" fill="#e5e7eb"/>
          <rect x="15" y="18" width="3" height="2" fill="#e5e7eb"/>
          <rect x="20" y="18" width="3" height="2" fill="#e5e7eb"/>
          <rect x="25" y="18" width="3" height="2" fill="#e5e7eb"/>
          <rect x="30" y="18" width="3" height="2" fill="#e5e7eb"/>
        </g>
        
        <g transform="translate(1200, 20)">
          <rect x="0" y="0" width="80" height="32" rx="6" fill="#ffffff" stroke="#e5e7eb" cursor="pointer"/>
          <text x="40" y="21" font-family="system-ui" font-size="13" text-anchor="middle">Manage</text>
          
          <rect x="92" y="0" width="60" height="32" rx="6" fill="#ffffff" stroke="#e5e7eb" cursor="pointer"/>
          <text x="122" y="21" font-family="system-ui" font-size="13" text-anchor="middle">Clone</text>
        </g>
      </g>
    </g>
  </g>
</svg>