<svg viewBox="0 0 1440 900" xmlns="http://www.w3.org/2000/svg">
  <!-- Work Items Kanban View Mockup -->
  <defs>
    <filter id="cardShadow">
      <feDropShadow dx="0" dy="2" stdDeviation="4" flood-opacity="0.1"/>
    </filter>
    <filter id="itemShadow">
      <feDropShadow dx="0" dy="1" stdDeviation="2" flood-opacity="0.08"/>
    </filter>
  </defs>
  
  <!-- Background -->
  <rect width="1440" height="900" fill="#f9fafb"/>
  
  <!-- Header -->
  <rect width="1440" height="64" fill="#ffffff" filter="url(#cardShadow)"/>
  <text x="24" y="40" font-family="system-ui, -apple-system, sans-serif" font-size="20" font-weight="600">Claude Flow</text>
  
  <!-- Breadcrumb -->
  <text x="200" y="40" font-family="system-ui" font-size="14" fill="#6b7280">Dashboard</text>
  <text x="280" y="40" font-family="system-ui" font-size="14" fill="#6b7280">/</text>
  <text x="300" y="40" font-family="system-ui" font-size="14" fill="#6b7280">Projects</text>
  <text x="360" y="40" font-family="system-ui" font-size="14" fill="#6b7280">/</text>
  <text x="380" y="40" font-family="system-ui" font-size="14" fill="#6b7280">E-commerce Platform</text>
  <text x="540" y="40" font-family="system-ui" font-size="14" fill="#6b7280">/</text>
  <text x="560" y="40" font-family="system-ui" font-size="14" fill="#111827">Work Items</text>
  
  <!-- Page Header -->
  <g transform="translate(24, 88)">
    <text x="0" y="24" font-family="system-ui" font-size="24" font-weight="700">Work Items</text>
    
    <!-- View Toggle -->
    <g transform="translate(160, 0)">
      <rect x="0" y="4" width="80" height="32" rx="16" fill="#3b82f6"/>
      <text x="40" y="24" font-family="system-ui" font-size="13" fill="#ffffff" text-anchor="middle">Kanban</text>
      
      <rect x="92" y="4" width="60" height="32" rx="16" fill="#ffffff" stroke="#e5e7eb" cursor="pointer"/>
      <text x="122" y="24" font-family="system-ui" font-size="13" fill="#6b7280" text-anchor="middle">List</text>
      
      <rect x="164" y="4" width="80" height="32" rx="16" fill="#ffffff" stroke="#e5e7eb" cursor="pointer"/>
      <text x="204" y="24" font-family="system-ui" font-size="13" fill="#6b7280" text-anchor="middle">Timeline</text>
    </g>
    
    <!-- Actions -->
    <rect x="1248" y="0" width="144" height="40" rx="6" fill="#3b82f6" cursor="pointer"/>
    <text x="1320" y="26" font-family="system-ui" font-size="14" fill="#ffffff" text-anchor="middle">+ New Work Item</text>
  </g>
  
  <!-- Filter Bar -->
  <g transform="translate(24, 136)">
    <rect x="0" y="0" width="1392" height="48" rx="8" fill="#ffffff" filter="url(#cardShadow)"/>
    
    <!-- Search -->
    <rect x="16" y="8" width="300" height="32" rx="6" fill="#f3f4f6" stroke="#e5e7eb"/>
    <text x="28" y="28" font-family="system-ui" font-size="13" fill="#9ca3af">🔍 Search work items...</text>
    
    <!-- Filters -->
    <text x="340" y="28" font-family="system-ui" font-size="13" fill="#6b7280">Assignee:</text>
    <rect x="400" y="8" width="120" height="32" rx="6" fill="#ffffff" stroke="#e5e7eb"/>
    <text x="412" y="28" font-family="system-ui" font-size="13">All Members ▼</text>
    
    <text x="544" y="28" font-family="system-ui" font-size="13" fill="#6b7280">Priority:</text>
    <rect x="592" y="8" width="100" height="32" rx="6" fill="#ffffff" stroke="#e5e7eb"/>
    <text x="604" y="28" font-family="system-ui" font-size="13">All ▼</text>
    
    <text x="716" y="28" font-family="system-ui" font-size="13" fill="#6b7280">Sprint:</text>
    <rect x="756" y="8" width="120" height="32" rx="6" fill="#ffffff" stroke="#e5e7eb"/>
    <text x="768" y="28" font-family="system-ui" font-size="13">Current ▼</text>
  </g>
  
  <!-- Kanban Board -->
  <g transform="translate(24, 200)">
    <!-- To Do Column -->
    <g transform="translate(0, 0)">
      <rect x="0" y="0" width="340" height="660" rx="8" fill="#f3f4f6"/>
      <rect x="16" y="16" width="308" height="40" rx="6" fill="#ffffff"/>
      <text x="28" y="40" font-family="system-ui" font-size="14" font-weight="600">To Do</text>
      <rect x="260" y="24" width="52" height="24" rx="12" fill="#e5e7eb"/>
      <text x="286" y="40" font-family="system-ui" font-size="12" text-anchor="middle">4</text>
      
      <!-- Work Items -->
      <g transform="translate(16, 72)">
        <!-- Item 1 -->
        <rect x="0" y="0" width="308" height="120" rx="8" fill="#ffffff" filter="url(#itemShadow)" cursor="move"/>
        <rect x="0" y="0" width="4" height="120" rx="2 0 0 2" fill="#ef4444"/>
        <text x="16" y="24" font-family="system-ui" font-size="13" font-weight="500">#WI-157</text>
        <rect x="244" y="8" width="56" height="20" rx="10" fill="#fee2e2"/>
        <text x="272" y="22" font-family="system-ui" font-size="10" text-anchor="middle" fill="#991b1b">High</text>
        
        <text x="16" y="48" font-family="system-ui" font-size="14">Add product search functionality</text>
        <text x="16" y="68" font-family="system-ui" font-size="12" fill="#6b7280">Implement full-text search with filters</text>
        
        <g transform="translate(16, 84)">
          <rect x="0" y="0" width="60" height="20" rx="10" fill="#dbeafe"/>
          <text x="30" y="14" font-family="system-ui" font-size="10" text-anchor="middle" fill="#1e40af">Frontend</text>
          
          <rect x="68" y="0" width="60" height="20" rx="10" fill="#e0e7ff"/>
          <text x="98" y="14" font-family="system-ui" font-size="10" text-anchor="middle" fill="#4338ca">Backend</text>
          
          <circle cx="252" cy="10" r="12" fill="#fbbf24"/>
          <text x="252" y="14" font-family="system-ui" font-size="10" text-anchor="middle" fill="#78350f">SC</text>
        </g>
        
        <!-- Item 2 -->
        <rect x="0" y="132" width="308" height="100" rx="8" fill="#ffffff" filter="url(#itemShadow)" cursor="move"/>
        <rect x="0" y="132" width="4" height="100" rx="2 0 0 2" fill="#f59e0b"/>
        <text x="16" y="156" font-family="system-ui" font-size="13" font-weight="500">#WI-159</text>
        <rect x="244" y="140" width="56" height="20" rx="10" fill="#fef3c7"/>
        <text x="272" y="154" font-family="system-ui" font-size="10" text-anchor="middle" fill="#92400e">Medium</text>
        
        <text x="16" y="180" font-family="system-ui" font-size="14">Write unit tests for cart logic</text>
        
        <g transform="translate(16, 196)">
          <rect x="0" y="0" width="50" height="20" rx="10" fill="#d1fae5"/>
          <text x="25" y="14" font-family="system-ui" font-size="10" text-anchor="middle" fill="#065f46">Testing</text>
          
          <text x="230" y="14" font-family="system-ui" font-size="10" fill="#6b7280">Unassigned</text>
        </g>
      </g>
    </g>
    
    <!-- In Progress Column -->
    <g transform="translate(356, 0)">
      <rect x="0" y="0" width="340" height="660" rx="8" fill="#f3f4f6"/>
      <rect x="16" y="16" width="308" height="40" rx="6" fill="#ffffff"/>
      <text x="28" y="40" font-family="system-ui" font-size="14" font-weight="600">In Progress</text>
      <rect x="260" y="24" width="52" height="24" rx="12" fill="#dbeafe"/>
      <text x="286" y="40" font-family="system-ui" font-size="12" text-anchor="middle" fill="#1e40af">2</text>
      
      <!-- Work Items -->
      <g transform="translate(16, 72)">
        <!-- Item 1 -->
        <rect x="0" y="0" width="308" height="140" rx="8" fill="#ffffff" filter="url(#itemShadow)" cursor="move"/>
        <rect x="0" y="0" width="4" height="140" rx="2 0 0 2" fill="#3b82f6"/>
        <text x="16" y="24" font-family="system-ui" font-size="13" font-weight="500">#WI-156</text>
        <rect x="244" y="8" width="56" height="20" rx="10" fill="#fee2e2"/>
        <text x="272" y="22" font-family="system-ui" font-size="10" text-anchor="middle" fill="#991b1b">High</text>
        
        <text x="16" y="48" font-family="system-ui" font-size="14">Implement payment gateway</text>
        <text x="16" y="68" font-family="system-ui" font-size="12" fill="#6b7280">Stripe integration for checkout flow</text>
        
        <!-- Progress Bar -->
        <rect x="16" y="84" width="276" height="6" rx="3" fill="#e5e7eb"/>
        <rect x="16" y="84" width="166" height="6" rx="3" fill="#3b82f6"/>
        <text x="16" y="106" font-family="system-ui" font-size="11" fill="#6b7280">60% Complete</text>
        
        <g transform="translate(16, 108)">
          <circle cx="12" cy="12" r="12" fill="#8b5cf6"/>
          <text x="12" y="16" font-family="system-ui" font-size="10" text-anchor="middle" fill="#ffffff">MJ</text>
          <text x="32" y="16" font-family="system-ui" font-size="11" fill="#6b7280">2 days in progress</text>
        </g>
        
        <!-- Item 2 -->
        <rect x="0" y="152" width="308" height="120" rx="8" fill="#ffffff" filter="url(#itemShadow)" cursor="move"/>
        <rect x="0" y="152" width="4" height="120" rx="2 0 0 2" fill="#10b981"/>
        <text x="16" y="176" font-family="system-ui" font-size="13" font-weight="500">#WI-154</text>
        <rect x="244" y="160" width="56" height="20" rx="10" fill="#fef3c7"/>
        <text x="272" y="174" font-family="system-ui" font-size="10" text-anchor="middle" fill="#92400e">Medium</text>
        
        <text x="16" y="200" font-family="system-ui" font-size="14">Update product catalog UI</text>
        
        <!-- Progress Bar -->
        <rect x="16" y="216" width="276" height="6" rx="3" fill="#e5e7eb"/>
        <rect x="16" y="216" width="83" height="6" rx="3" fill="#10b981"/>
        <text x="16" y="238" font-family="system-ui" font-size="11" fill="#6b7280">30% Complete</text>
        
        <g transform="translate(16, 240)">
          <circle cx="12" cy="12" r="12" fill="#ef4444"/>
          <text x="12" y="16" font-family="system-ui" font-size="10" text-anchor="middle" fill="#ffffff">AR</text>
        </g>
      </g>
    </g>
    
    <!-- In Review Column -->
    <g transform="translate(712, 0)">
      <rect x="0" y="0" width="340" height="660" rx="8" fill="#f3f4f6"/>
      <rect x="16" y="16" width="308" height="40" rx="6" fill="#ffffff"/>
      <text x="28" y="40" font-family="system-ui" font-size="14" font-weight="600">In Review</text>
      <rect x="260" y="24" width="52" height="24" rx="12" fill="#e0e7ff"/>
      <text x="286" y="40" font-family="system-ui" font-size="12" text-anchor="middle" fill="#4338ca">3</text>
      
      <!-- Work Items -->
      <g transform="translate(16, 72)">
        <!-- Item 1 -->
        <rect x="0" y="0" width="308" height="100" rx="8" fill="#ffffff" filter="url(#itemShadow)" cursor="move"/>
        <rect x="0" y="0" width="4" height="100" rx="2 0 0 2" fill="#8b5cf6"/>
        <text x="16" y="24" font-family="system-ui" font-size="13" font-weight="500">#WI-153</text>
        <rect x="244" y="8" width="56" height="20" rx="10" fill="#e5e7eb"/>
        <text x="272" y="22" font-family="system-ui" font-size="10" text-anchor="middle" fill="#374151">Low</text>
        
        <text x="16" y="48" font-family="system-ui" font-size="14">Add order history page</text>
        
        <g transform="translate(16, 64)">
          <rect x="0" y="0" width="80" height="20" rx="10" fill="#fef3c7"/>
          <text x="40" y="14" font-family="system-ui" font-size="10" text-anchor="middle" fill="#92400e">PR #234</text>
          
          <circle cx="232" cy="10" r="12" fill="#10b981"/>
          <text x="232" y="14" font-family="system-ui" font-size="10" text-anchor="middle" fill="#ffffff">TK</text>
        </g>
        
        <!-- Item 2 -->
        <rect x="0" y="112" width="308" height="100" rx="8" fill="#ffffff" filter="url(#itemShadow)" cursor="move"/>
        <rect x="0" y="112" width="4" height="100" rx="2 0 0 2" fill="#6366f1"/>
        <text x="16" y="136" font-family="system-ui" font-size="13" font-weight="500">#WI-152</text>
        
        <text x="16" y="160" font-family="system-ui" font-size="14">Fix responsive layout issues</text>
        
        <g transform="translate(16, 176)">
          <rect x="0" y="0" width="80" height="20" rx="10" fill="#fef3c7"/>
          <text x="40" y="14" font-family="system-ui" font-size="10" text-anchor="middle" fill="#92400e">PR #235</text>
          
          <text x="180" y="14" font-family="system-ui" font-size="11" fill="#ef4444">2 comments</text>
        </g>
      </g>
    </g>
    
    <!-- Done Column -->
    <g transform="translate(1068, 0)">
      <rect x="0" y="0" width="324" height="660" rx="8" fill="#f3f4f6"/>
      <rect x="16" y="16" width="292" height="40" rx="6" fill="#ffffff"/>
      <text x="28" y="40" font-family="system-ui" font-size="14" font-weight="600">Done</text>
      <rect x="244" y="24" width="52" height="24" rx="12" fill="#d1fae5"/>
      <text x="270" y="40" font-family="system-ui" font-size="12" text-anchor="middle" fill="#065f46">14</text>
      
      <!-- Work Items -->
      <g transform="translate(16, 72)">
        <!-- Item 1 -->
        <rect x="0" y="0" width="292" height="80" rx="8" fill="#ffffff" filter="url(#itemShadow)" cursor="move" opacity="0.8"/>
        <rect x="0" y="0" width="4" height="80" rx="2 0 0 2" fill="#10b981"/>
        <text x="16" y="24" font-family="system-ui" font-size="13" font-weight="500" fill="#6b7280">#WI-145</text>
        
        <text x="16" y="48" font-family="system-ui" font-size="14" fill="#6b7280" text-decoration="line-through">Setup user authentication</text>
        
        <g transform="translate(16, 56)">
          <circle cx="4" cy="4" r="4" fill="#10b981"/>
          <text x="16" y="8" font-family="system-ui" font-size="11" fill="#6b7280">Completed 2 days ago</text>
        </g>
        
        <!-- Item 2 -->
        <rect x="0" y="92" width="292" height="80" rx="8" fill="#ffffff" filter="url(#itemShadow)" cursor="move" opacity="0.8"/>
        <rect x="0" y="92" width="4" height="80" rx="2 0 0 2" fill="#10b981"/>
        <text x="16" y="116" font-family="system-ui" font-size="13" font-weight="500" fill="#6b7280">#WI-144</text>
        
        <text x="16" y="140" font-family="system-ui" font-size="14" fill="#6b7280" text-decoration="line-through">Create database schema</text>
        
        <g transform="translate(16, 148)">
          <circle cx="4" cy="4" r="4" fill="#10b981"/>
          <text x="16" y="8" font-family="system-ui" font-size="11" fill="#6b7280">Completed 3 days ago</text>
        </g>
        
        <!-- Show more -->
        <text x="146" y="200" font-family="system-ui" font-size="12" fill="#3b82f6" text-anchor="middle" cursor="pointer">Show 12 more items ↓</text>
      </g>
    </g>
  </g>
  
  <!-- Quick Add Button -->
  <g transform="translate(24, 800)">
    <rect x="0" y="0" width="200" height="40" rx="20" fill="#3b82f6" cursor="pointer" filter="url(#cardShadow)"/>
    <text x="100" y="26" font-family="system-ui" font-size="14" fill="#ffffff" text-anchor="middle">+ Quick Add</text>
  </g>
  
  <!-- Sprint Info Bar -->
  <rect x="0" y="860" width="1440" height="40" fill="#1f2937"/>
  <text x="24" y="885" font-family="system-ui" font-size="13" fill="#ffffff">Sprint 4: E-commerce MVP</text>
  <text x="200" y="885" font-family="system-ui" font-size="13" fill="#9ca3af">•</text>
  <text x="220" y="885" font-family="system-ui" font-size="13" fill="#ffffff">5 days remaining</text>
  <text x="360" y="885" font-family="system-ui" font-size="13" fill="#9ca3af">•</text>
  <text x="380" y="885" font-family="system-ui" font-size="13" fill="#ffffff">23 story points completed of 32</text>
  
  <!-- Sprint Progress -->
  <rect x="1200" y="878" width="200" height="4" rx="2" fill="#374151"/>
  <rect x="1200" y="878" width="144" height="4" rx="2" fill="#10b981"/>
  <text x="1416" y="885" font-family="system-ui" font-size="13" fill="#ffffff" text-anchor="end">72%</text>
</svg>