<svg viewBox="0 0 1440 900" xmlns="http://www.w3.org/2000/svg">
  <!-- Persona Review Session View Mockup -->
  <defs>
    <filter id="cardShadow">
      <feDropShadow dx="0" dy="2" stdDeviation="4" flood-opacity="0.1"/>
    </filter>
    <filter id="personaShadow">
      <feDropShadow dx="0" dy="4" stdDeviation="6" flood-opacity="0.15"/>
    </filter>
    <linearGradient id="personaGradient1" x1="0%" y1="0%" x2="100%" y2="100%">
      <stop offset="0%" style="stop-color:#3b82f6;stop-opacity:1" />
      <stop offset="100%" style="stop-color:#2563eb;stop-opacity:1" />
    </linearGradient>
    <linearGradient id="personaGradient2" x1="0%" y1="0%" x2="100%" y2="100%">
      <stop offset="0%" style="stop-color:#8b5cf6;stop-opacity:1" />
      <stop offset="100%" style="stop-color:#7c3aed;stop-opacity:1" />
    </linearGradient>
    <linearGradient id="personaGradient3" x1="0%" y1="0%" x2="100%" y2="100%">
      <stop offset="0%" style="stop-color:#10b981;stop-opacity:1" />
      <stop offset="100%" style="stop-color:#059669;stop-opacity:1" />
    </linearGradient>
  </defs>
  
  <!-- Background -->
  <rect width="1440" height="900" fill="#f9fafb"/>
  
  <!-- Header -->
  <rect width="1440" height="64" fill="#ffffff" filter="url(#cardShadow)"/>
  <text x="24" y="40" font-family="system-ui, -apple-system, sans-serif" font-size="20" font-weight="600">Claude Flow</text>
  
  <!-- Session Title -->
  <text x="200" y="40" font-family="system-ui" font-size="16" fill="#111827">AI Review Session: Add product search functionality (#WI-157)</text>
  
  <!-- Exit Button -->
  <rect x="1300" y="17" width="116" height="30" rx="6" fill="#ffffff" stroke="#e5e7eb" cursor="pointer"/>
  <text x="1358" y="37" font-family="system-ui" font-size="13" text-anchor="middle">Exit Review</text>
  
  <!-- Main Container -->
  <g transform="translate(0, 64)">
    <!-- Progress Bar -->
    <rect x="0" y="0" width="1440" height="48" fill="#ffffff"/>
    <text x="24" y="30" font-family="system-ui" font-size="14" font-weight="500">Review Progress</text>
    <rect x="160" y="18" width="1100" height="12" rx="6" fill="#e5e7eb"/>
    <rect x="160" y="18" width="733" height="12" rx="6" fill="#3b82f6"/>
    <text x="1280" y="30" font-family="system-ui" font-size="14" fill="#6b7280">2 of 3 personas reviewed</text>
    
    <!-- Persona Selection Area -->
    <rect x="0" y="48" width="300" height="788" fill="#ffffff" filter="url(#cardShadow)"/>
    <text x="24" y="80" font-family="system-ui" font-size="16" font-weight="600">Select Personas</text>
    
    <!-- Persona Cards -->
    <g transform="translate(20, 100)">
      <!-- Persona 1 - UX Designer (Selected, Reviewed) -->
      <rect x="0" y="0" width="260" height="100" rx="8" fill="#f0f9ff" stroke="#3b82f6" stroke-width="2" cursor="pointer"/>
      <circle cx="40" cy="50" r="24" fill="url(#personaGradient1)"/>
      <text x="40" y="55" font-family="system-ui" font-size="20" text-anchor="middle" fill="#ffffff">🎨</text>
      <text x="76" y="42" font-family="system-ui" font-size="15" font-weight="600">UX Designer</text>
      <text x="76" y="58" font-family="system-ui" font-size="12" fill="#6b7280">User experience focus</text>
      <circle cx="236" cy="24" r="8" fill="#10b981"/>
      <path d="M 230 24 L 234 28 L 242 20" stroke="#ffffff" stroke-width="2" fill="none"/>
      
      <!-- Persona 2 - Backend Engineer (Selected, Reviewing) -->
      <rect x="0" y="112" width="260" height="100" rx="8" fill="#f5f3ff" stroke="#8b5cf6" stroke-width="2" cursor="pointer"/>
      <circle cx="40" cy="162" r="24" fill="url(#personaGradient2)"/>
      <text x="40" y="167" font-family="system-ui" font-size="20" text-anchor="middle" fill="#ffffff">⚙️</text>
      <text x="76" y="154" font-family="system-ui" font-size="15" font-weight="600">Backend Engineer</text>
      <text x="76" y="170" font-family="system-ui" font-size="12" fill="#6b7280">Technical focus</text>
      <rect x="204" y="128" width="48" height="20" rx="10" fill="#fbbf24"/>
      <text x="228" y="142" font-family="system-ui" font-size="10" text-anchor="middle" fill="#78350f">Active</text>
      
      <!-- Persona 3 - Product Manager (Selected, Pending) -->
      <rect x="0" y="224" width="260" height="100" rx="8" fill="#f0fdf4" stroke="#10b981" stroke-width="2" cursor="pointer"/>
      <circle cx="40" cy="274" r="24" fill="url(#personaGradient3)"/>
      <text x="40" y="279" font-family="system-ui" font-size="20" text-anchor="middle" fill="#ffffff">📊</text>
      <text x="76" y="266" font-family="system-ui" font-size="15" font-weight="600">Product Manager</text>
      <text x="76" y="282" font-family="system-ui" font-size="12" fill="#6b7280">Business priorities</text>
      <circle cx="236" cy="248" r="8" fill="#e5e7eb"/>
      
      <!-- Persona 4 - Security Expert (Not Selected) -->
      <rect x="0" y="336" width="260" height="100" rx="8" fill="#ffffff" stroke="#e5e7eb" cursor="pointer"/>
      <circle cx="40" cy="386" r="24" fill="#ef4444"/>
      <text x="40" y="391" font-family="system-ui" font-size="20" text-anchor="middle" fill="#ffffff">🔒</text>
      <text x="76" y="378" font-family="system-ui" font-size="15" font-weight="600">Security Expert</text>
      <text x="76" y="394" font-family="system-ui" font-size="12" fill="#6b7280">Security compliance</text>
      
      <!-- Start Review Button -->
      <rect x="0" y="500" width="260" height="40" rx="6" fill="#3b82f6" cursor="pointer"/>
      <text x="130" y="524" font-family="system-ui" font-size="14" fill="#ffffff" text-anchor="middle">Continue Review</text>
    </g>
    
    <!-- Review Content Area -->
    <g transform="translate(300, 48)">
      <rect x="0" y="0" width="1140" height="788" fill="#ffffff"/>
      
      <!-- Current Persona Header -->
      <rect x="0" y="0" width="1140" height="80" fill="#f5f3ff"/>
      <circle cx="60" cy="40" r="28" fill="url(#personaGradient2)"/>
      <text x="60" y="46" font-family="system-ui" font-size="24" text-anchor="middle" fill="#ffffff">⚙️</text>
      <text x="104" y="36" font-family="system-ui" font-size="20" font-weight="600">Backend Engineer Review</text>
      <text x="104" y="56" font-family="system-ui" font-size="14" fill="#6b7280">Reviewing technical implementation aspects</text>
      
      <!-- Review Suggestions -->
      <g transform="translate(24, 100)">
        <text x="0" y="0" font-family="system-ui" font-size="16" font-weight="600">Suggestions</text>
        
        <!-- Suggestion 1 -->
        <g transform="translate(0, 24)">
          <rect x="0" y="0" width="1092" height="140" rx="8" fill="#f9fafb" stroke="#e5e7eb"/>
          <rect x="0" y="0" width="4" height="140" rx="2 0 0 2" fill="#f59e0b"/>
          
          <text x="20" y="28" font-family="system-ui" font-size="15" font-weight="600">Consider using a dedicated search service</text>
          <text x="20" y="52" font-family="system-ui" font-size="14" fill="#374151">Instead of implementing search directly in the database, consider using Elasticsearch or</text>
          <text x="20" y="72" font-family="system-ui" font-size="14" fill="#374151">Algolia for better performance and features like fuzzy matching, faceted search, and relevance scoring.</text>
          
          <rect x="20" y="92" width="80" height="28" rx="6" fill="#dbeafe"/>
          <text x="60" y="110" font-family="system-ui" font-size="12" text-anchor="middle" fill="#1e40af">Performance</text>
          
          <rect x="108" y="92" width="80" height="28" rx="6" fill="#fef3c7"/>
          <text x="148" y="110" font-family="system-ui" font-size="12" text-anchor="middle" fill="#92400e">Architecture</text>
          
          <!-- Action Buttons -->
          <rect x="852" y="92" width="80" height="32" rx="6" fill="#10b981" cursor="pointer"/>
          <text x="892" y="112" font-family="system-ui" font-size="13" fill="#ffffff" text-anchor="middle">Accept</text>
          
          <rect x="944" y="92" width="60" height="32" rx="6" fill="#ffffff" stroke="#e5e7eb" cursor="pointer"/>
          <text x="974" y="112" font-family="system-ui" font-size="13" text-anchor="middle">Skip</text>
          
          <rect x="1016" y="92" width="60" height="32" rx="6" fill="#ffffff" stroke="#e5e7eb" cursor="pointer"/>
          <text x="1046" y="112" font-family="system-ui" font-size="13" text-anchor="middle">Refine</text>
        </g>
        
        <!-- Suggestion 2 (Accepted) -->
        <g transform="translate(0, 180)">
          <rect x="0" y="0" width="1092" height="120" rx="8" fill="#f0fdf4" stroke="#10b981" opacity="0.8"/>
          <rect x="0" y="0" width="4" height="120" rx="2 0 0 2" fill="#10b981"/>
          
          <text x="20" y="28" font-family="system-ui" font-size="15" font-weight="600">Add caching layer for search results</text>
          <text x="20" y="52" font-family="system-ui" font-size="14" fill="#374151">Implement Redis caching for frequently searched terms to reduce database load and improve response times.</text>
          
          <rect x="20" y="72" width="100" height="28" rx="6" fill="#d1fae5"/>
          <text x="70" y="90" font-family="system-ui" font-size="12" text-anchor="middle" fill="#065f46">✓ Accepted</text>
          
          <text x="900" y="90" font-family="system-ui" font-size="12" fill="#6b7280">Added to requirements</text>
        </g>
        
        <!-- Suggestion 3 -->
        <g transform="translate(0, 320)">
          <rect x="0" y="0" width="1092" height="160" rx="8" fill="#f9fafb" stroke="#e5e7eb"/>
          <rect x="0" y="0" width="4" height="160" rx="2 0 0 2" fill="#3b82f6"/>
          
          <text x="20" y="28" font-family="system-ui" font-size="15" font-weight="600">Implement search analytics</text>
          <text x="20" y="52" font-family="system-ui" font-size="14" fill="#374151">Track search queries, click-through rates, and "no results" searches to continuously improve</text>
          <text x="20" y="72" font-family="system-ui" font-size="14" fill="#374151">the search algorithm and understand user behavior. This data can inform product decisions.</text>
          
          <!-- Code Example -->
          <rect x="20" y="88" width="600" height="48" rx="4" fill="#1f2937"/>
          <text x="32" y="108" font-family="monospace" font-size="12" fill="#10b981">trackSearch({ query, resultsCount, userId, timestamp });</text>
          
          <!-- Action Buttons -->
          <rect x="852" y="112" width="80" height="32" rx="6" fill="#10b981" cursor="pointer"/>
          <text x="892" y="132" font-family="system-ui" font-size="13" fill="#ffffff" text-anchor="middle">Accept</text>
          
          <rect x="944" y="112" width="60" height="32" rx="6" fill="#ffffff" stroke="#e5e7eb" cursor="pointer"/>
          <text x="974" y="132" font-family="system-ui" font-size="13" text-anchor="middle">Skip</text>
          
          <rect x="1016" y="112" width="60" height="32" rx="6" fill="#ffffff" stroke="#e5e7eb" cursor="pointer"/>
          <text x="1046" y="132" font-family="system-ui" font-size="13" text-anchor="middle">Refine</text>
        </g>
      </g>
      
      <!-- Refinement Dialog (Overlay) -->
      <g transform="translate(200, 200)" opacity="0.95">
        <rect x="0" y="0" width="600" height="320" rx="8" fill="#ffffff" filter="url(#personaShadow)"/>
        <rect x="0" y="0" width="600" height="56" rx="8 8 0 0" fill="#f3f4f6"/>
        
        <text x="24" y="36" font-family="system-ui" font-size="16" font-weight="600">Refine Suggestion</text>
        <text x="560" y="36" font-family="system-ui" font-size="20" fill="#6b7280" cursor="pointer">×</text>
        
        <text x="24" y="88" font-family="system-ui" font-size="14" fill="#6b7280">Ask the Backend Engineer to clarify or modify their suggestion:</text>
        
        <rect x="24" y="104" width="552" height="120" rx="6" fill="#f9fafb" stroke="#e5e7eb"/>
        <text x="36" y="128" font-family="system-ui" font-size="14">Can you provide more specific implementation details for the</text>
        <text x="36" y="148" font-family="system-ui" font-size="14">search service? What about indexing strategies and query</text>
        <text x="36" y="168" font-family="system-ui" font-size="14">optimization?</text>
        
        <line x1="186" y1="168" x2="191" y2="168" stroke="#3b82f6" stroke-width="2">
          <animate attributeName="opacity" values="1;0;1" dur="1s" repeatCount="indefinite"/>
        </line>
        
        <!-- Buttons -->
        <rect x="376" y="256" width="80" height="36" rx="6" fill="#ffffff" stroke="#e5e7eb" cursor="pointer"/>
        <text x="416" y="278" font-family="system-ui" font-size="14" text-anchor="middle">Cancel</text>
        
        <rect x="468" y="256" width="80" height="36" rx="6" fill="#3b82f6" cursor="pointer"/>
        <text x="508" y="278" font-family="system-ui" font-size="14" fill="#ffffff" text-anchor="middle">Refine</text>
      </g>
      
      <!-- Navigation -->
      <g transform="translate(24, 660)">
        <rect x="0" y="0" width="1092" height="80" rx="8" fill="#f3f4f6"/>
        
        <rect x="20" y="20" width="120" height="40" rx="6" fill="#ffffff" stroke="#e5e7eb" cursor="pointer"/>
        <text x="80" y="44" font-family="system-ui" font-size="14" text-anchor="middle">← Previous</text>
        
        <text x="546" y="44" font-family="system-ui" font-size="14" text-anchor="middle" fill="#6b7280">2 suggestions accepted, 1 pending</text>
        
        <rect x="952" y="20" width="120" height="40" rx="6" fill="#3b82f6" cursor="pointer"/>
        <text x="1012" y="44" font-family="system-ui" font-size="14" fill="#ffffff" text-anchor="middle">Next Persona →</text>
      </g>
    </g>
  </g>
  
  <!-- Summary Sidebar -->
  <rect x="1140" y="64" width="300" height="836" fill="#f9fafb"/>
  <g transform="translate(1160, 84)">
    <text x="0" y="0" font-family="system-ui" font-size="16" font-weight="600">Review Summary</text>
    
    <!-- Stats -->
    <rect x="0" y="20" width="260" height="80" rx="6" fill="#ffffff"/>
    <text x="12" y="44" font-family="system-ui" font-size="24" font-weight="600" fill="#10b981">7</text>
    <text x="44" y="44" font-family="system-ui" font-size="14" fill="#6b7280">suggestions accepted</text>
    
    <text x="12" y="76" font-family="system-ui" font-size="24" font-weight="600" fill="#f59e0b">3</text>
    <text x="44" y="76" font-family="system-ui" font-size="14" fill="#6b7280">pending review</text>
    
    <!-- Accepted Suggestions List -->
    <text x="0" y="132" font-family="system-ui" font-size="14" font-weight="600">Accepted Changes</text>
    
    <g transform="translate(0, 152)">
      <rect x="0" y="0" width="260" height="60" rx="6" fill="#ffffff"/>
      <circle cx="12" cy="12" r="4" fill="#3b82f6"/>
      <text x="24" y="16" font-family="system-ui" font-size="12" font-weight="500">UX: Simplify search UI</text>
      <text x="24" y="32" font-family="system-ui" font-size="11" fill="#6b7280">Remove advanced filters initially</text>
      <text x="24" y="48" font-family="system-ui" font-size="10" fill="#6b7280">by UX Designer • 10 min ago</text>
      
      <rect x="0" y="68" width="260" height="60" rx="6" fill="#ffffff"/>
      <circle cx="12" cy="12" r="4" fill="#3b82f6"/>
      <text x="24" y="84" font-family="system-ui" font-size="12" font-weight="500">UX: Add search history</text>
      <text x="24" y="100" font-family="system-ui" font-size="11" fill="#6b7280">Show recent searches dropdown</text>
      <text x="24" y="116" font-family="system-ui" font-size="10" fill="#6b7280">by UX Designer • 8 min ago</text>
      
      <rect x="0" y="136" width="260" height="60" rx="6" fill="#ffffff"/>
      <circle cx="12" cy="12" r="4" fill="#8b5cf6"/>
      <text x="24" y="152" font-family="system-ui" font-size="12" font-weight="500">BE: Add caching layer</text>
      <text x="24" y="168" font-family="system-ui" font-size="11" fill="#6b7280">Redis for search results</text>
      <text x="24" y="184" font-family="system-ui" font-size="10" fill="#6b7280">by Backend Engineer • 2 min ago</text>
    </g>
    
    <!-- Complete Review Button -->
    <rect x="0" y="480" width="260" height="44" rx="6" fill="#10b981" cursor="pointer" opacity="0.5"/>
    <text x="130" y="506" font-family="system-ui" font-size="14" fill="#ffffff" text-anchor="middle">Complete Review</text>
    <text x="130" y="544" font-family="system-ui" font-size="11" fill="#6b7280" text-anchor="middle">Finish all personas first</text>
  </g>
</svg>