<?xml version="1.0" encoding="UTF-8"?>
<svg viewBox="0 0 1200 1000" xmlns="http://www.w3.org/2000/svg">
  <defs>
    <!-- Shadows -->
    <filter id="dropdown-shadow">
      <feDropShadow dx="0" dy="4" stdDeviation="6" flood-opacity="0.1"/>
    </filter>
    <filter id="hover-bg">
      <feFlood flood-color="#eff6ff" flood-opacity="1"/>
      <feComposite operator="over" in2="SourceGraphic"/>
    </filter>
  </defs>
  
  <!-- Title -->
  <text x="600" y="40" font-family="system-ui, -apple-system, sans-serif" font-size="24" font-weight="600" text-anchor="middle">Dropdown Components</text>
  
  <!-- Light Theme Container -->
  <g transform="translate(50, 80)">
    <rect x="0" y="0" width="500" height="880" fill="#ffffff" stroke="#e0e0e0" stroke-width="1"/>
    <text x="250" y="30" font-family="system-ui, -apple-system, sans-serif" font-size="18" font-weight="500" text-anchor="middle">Light Theme</text>
    
    <!-- Basic Dropdown -->
    <text x="20" y="70" font-family="system-ui, -apple-system, sans-serif" font-size="14" fill="#666666">Basic Dropdown</text>
    
    <!-- Closed State -->
    <g transform="translate(20, 90)">
      <rect x="0" y="0" width="200" height="40" rx="6" fill="#ffffff" stroke="#d1d5db" stroke-width="1"/>
      <text x="12" y="25" font-family="system-ui, -apple-system, sans-serif" font-size="14" fill="#374151">Select an option</text>
      <polyline points="180,16 185,21 190,16" fill="none" stroke="#6b7280" stroke-width="2" stroke-linecap="round" stroke-linejoin="round"/>
    </g>
    
    <!-- Open State -->
    <g transform="translate(240, 90)">
      <rect x="0" y="0" width="200" height="40" rx="6" fill="#ffffff" stroke="#3b82f6" stroke-width="2"/>
      <text x="12" y="25" font-family="system-ui, -apple-system, sans-serif" font-size="14" fill="#374151">Select an option</text>
      <polyline points="180,21 185,16 190,21" fill="none" stroke="#3b82f6" stroke-width="2" stroke-linecap="round" stroke-linejoin="round"/>
      
      <!-- Dropdown Menu -->
      <g transform="translate(0, 44)">
        <rect x="0" y="0" width="200" height="160" rx="6" fill="#ffffff" filter="url(#dropdown-shadow)"/>
        <rect x="8" y="8" width="184" height="32" rx="4" fill="#eff6ff"/>
        <text x="16" y="28" font-family="system-ui, -apple-system, sans-serif" font-size="14" fill="#1e40af">Option 1</text>
        <text x="16" y="60" font-family="system-ui, -apple-system, sans-serif" font-size="14" fill="#374151">Option 2</text>
        <text x="16" y="92" font-family="system-ui, -apple-system, sans-serif" font-size="14" fill="#374151">Option 3</text>
        <text x="16" y="124" font-family="system-ui, -apple-system, sans-serif" font-size="14" fill="#374151">Option 4</text>
        <line x1="8" y1="140" x2="192" y2="140" stroke="#e5e7eb" stroke-width="1"/>
        <text x="16" y="156" font-family="system-ui, -apple-system, sans-serif" font-size="14" fill="#ef4444">Delete</text>
      </g>
    </g>
    
    <!-- Dropdown with Icons -->
    <text x="20" y="320" font-family="system-ui, -apple-system, sans-serif" font-size="14" fill="#666666">Dropdown with Icons</text>
    
    <g transform="translate(20, 340)">
      <rect x="0" y="0" width="240" height="40" rx="6" fill="#ffffff" stroke="#3b82f6" stroke-width="2"/>
      <circle cx="20" cy="20" r="8" fill="#3b82f6"/>
      <text x="40" y="25" font-family="system-ui, -apple-system, sans-serif" font-size="14" fill="#374151">Project Alpha</text>
      <polyline points="220,21 225,16 230,21" fill="none" stroke="#3b82f6" stroke-width="2" stroke-linecap="round" stroke-linejoin="round"/>
      
      <!-- Dropdown Menu with Icons -->
      <g transform="translate(0, 44)">
        <rect x="0" y="0" width="240" height="144" rx="6" fill="#ffffff" filter="url(#dropdown-shadow)"/>
        
        <!-- Option 1 -->
        <rect x="8" y="8" width="224" height="32" rx="4" fill="#eff6ff"/>
        <circle cx="24" cy="24" r="8" fill="#3b82f6"/>
        <text x="44" y="28" font-family="system-ui, -apple-system, sans-serif" font-size="14" fill="#1e40af">Project Alpha</text>
        <text x="224" y="28" font-family="system-ui, -apple-system, sans-serif" font-size="12" fill="#6b7280" text-anchor="end">Active</text>
        
        <!-- Option 2 -->
        <circle cx="24" cy="56" r="8" fill="#10b981"/>
        <text x="44" y="60" font-family="system-ui, -apple-system, sans-serif" font-size="14" fill="#374151">Project Beta</text>
        <text x="224" y="60" font-family="system-ui, -apple-system, sans-serif" font-size="12" fill="#6b7280" text-anchor="end">Completed</text>
        
        <!-- Option 3 -->
        <circle cx="24" cy="88" r="8" fill="#f59e0b"/>
        <text x="44" y="92" font-family="system-ui, -apple-system, sans-serif" font-size="14" fill="#374151">Project Gamma</text>
        <text x="224" y="92" font-family="system-ui, -apple-system, sans-serif" font-size="12" fill="#6b7280" text-anchor="end">In Progress</text>
        
        <!-- Option 4 -->
        <circle cx="24" cy="120" r="8" fill="#ef4444"/>
        <text x="44" y="124" font-family="system-ui, -apple-system, sans-serif" font-size="14" fill="#374151">Project Delta</text>
        <text x="224" y="124" font-family="system-ui, -apple-system, sans-serif" font-size="12" fill="#6b7280" text-anchor="end">Delayed</text>
      </g>
    </g>
    
    <!-- Multi-select Dropdown -->
    <text x="20" y="530" font-family="system-ui, -apple-system, sans-serif" font-size="14" fill="#666666">Multi-select Dropdown</text>
    
    <g transform="translate(20, 550)">
      <rect x="0" y="0" width="260" height="40" rx="6" fill="#ffffff" stroke="#3b82f6" stroke-width="2"/>
      <text x="12" y="25" font-family="system-ui, -apple-system, sans-serif" font-size="14" fill="#374151">2 items selected</text>
      <polyline points="240,21 245,16 250,21" fill="none" stroke="#3b82f6" stroke-width="2" stroke-linecap="round" stroke-linejoin="round"/>
      
      <!-- Dropdown Menu with Checkboxes -->
      <g transform="translate(0, 44)">
        <rect x="0" y="0" width="260" height="160" rx="6" fill="#ffffff" filter="url(#dropdown-shadow)"/>
        
        <!-- Option 1 - Checked -->
        <rect x="8" y="8" width="244" height="32" rx="4" fill="#eff6ff"/>
        <rect x="16" y="16" width="16" height="16" rx="3" fill="#2563eb"/>
        <polyline points="20,24 23,27 28,22" fill="none" stroke="#ffffff" stroke-width="2" stroke-linecap="round" stroke-linejoin="round"/>
        <text x="40" y="28" font-family="system-ui, -apple-system, sans-serif" font-size="14" fill="#374151">Frontend Development</text>
        
        <!-- Option 2 - Checked -->
        <rect x="8" y="44" width="244" height="32" rx="4" fill="#eff6ff"/>
        <rect x="16" y="52" width="16" height="16" rx="3" fill="#2563eb"/>
        <polyline points="20,60 23,63 28,58" fill="none" stroke="#ffffff" stroke-width="2" stroke-linecap="round" stroke-linejoin="round"/>
        <text x="40" y="64" font-family="system-ui, -apple-system, sans-serif" font-size="14" fill="#374151">Backend Development</text>
        
        <!-- Option 3 - Unchecked -->
        <rect x="16" y="88" width="16" height="16" rx="3" fill="#ffffff" stroke="#d1d5db" stroke-width="1"/>
        <text x="40" y="100" font-family="system-ui, -apple-system, sans-serif" font-size="14" fill="#374151">UI/UX Design</text>
        
        <!-- Option 4 - Unchecked -->
        <rect x="16" y="124" width="16" height="16" rx="3" fill="#ffffff" stroke="#d1d5db" stroke-width="1"/>
        <text x="40" y="136" font-family="system-ui, -apple-system, sans-serif" font-size="14" fill="#374151">Testing &amp; QA</text>
      </g>
    </g>
    
    <!-- Searchable Dropdown -->
    <text x="20" y="740" font-family="system-ui, -apple-system, sans-serif" font-size="14" fill="#666666">Searchable Dropdown</text>
    
    <g transform="translate(20, 760)">
      <rect x="0" y="0" width="240" height="40" rx="6" fill="#ffffff" stroke="#3b82f6" stroke-width="2"/>
      <text x="12" y="25" font-family="system-ui, -apple-system, sans-serif" font-size="14" fill="#111827">John</text>
      <line x1="40" y1="25" x2="42" y2="25" stroke="#111827" stroke-width="2"/>
      <polyline points="220,21 225,16 230,21" fill="none" stroke="#3b82f6" stroke-width="2" stroke-linecap="round" stroke-linejoin="round"/>
      
      <!-- Dropdown with Search -->
      <g transform="translate(0, 44)">
        <rect x="0" y="0" width="240" height="200" rx="6" fill="#ffffff" filter="url(#dropdown-shadow)"/>
        
        <!-- Search Input -->
        <rect x="8" y="8" width="224" height="32" rx="4" fill="#f3f4f6"/>
        <circle cx="20" cy="24" r="6" fill="none" stroke="#6b7280" stroke-width="2"/>
        <line x1="24" y1="28" x2="28" y2="32" stroke="#6b7280" stroke-width="2" stroke-linecap="round"/>
        <text x="36" y="28" font-family="system-ui, -apple-system, sans-serif" font-size="14" fill="#111827">John</text>
        
        <line x1="8" y1="48" x2="232" y2="48" stroke="#e5e7eb" stroke-width="1"/>
        
        <!-- Filtered Results -->
        <rect x="8" y="56" width="224" height="32" rx="4" fill="#eff6ff"/>
        <circle cx="24" cy="72" r="12" fill="#e5e7eb"/>
        <text x="24" y="77" font-family="system-ui, -apple-system, sans-serif" font-size="12" fill="#6b7280" text-anchor="middle">JD</text>
        <text x="44" y="76" font-family="system-ui, -apple-system, sans-serif" font-size="14" fill="#1e40af" font-weight="500">John Doe</text>
        
        <circle cx="24" cy="104" r="12" fill="#e5e7eb"/>
        <text x="24" y="109" font-family="system-ui, -apple-system, sans-serif" font-size="12" fill="#6b7280" text-anchor="middle">JS</text>
        <text x="44" y="108" font-family="system-ui, -apple-system, sans-serif" font-size="14" fill="#374151">John Smith</text>
        
        <circle cx="24" cy="136" r="12" fill="#e5e7eb"/>
        <text x="24" y="141" font-family="system-ui, -apple-system, sans-serif" font-size="12" fill="#6b7280" text-anchor="middle">JW</text>
        <text x="44" y="140" font-family="system-ui, -apple-system, sans-serif" font-size="14" fill="#374151">John Williams</text>
        
        <text x="120" y="180" font-family="system-ui, -apple-system, sans-serif" font-size="12" fill="#9ca3af" text-anchor="middle">3 results found</text>
      </g>
    </g>
  </g>
  
  <!-- Dark Theme Container -->
  <g transform="translate(650, 80)">
    <rect x="0" y="0" width="500" height="880" fill="#1f2937" stroke="#374151" stroke-width="1"/>
    <text x="250" y="30" font-family="system-ui, -apple-system, sans-serif" font-size="18" font-weight="500" fill="#f3f4f6" text-anchor="middle">Dark Theme</text>
    
    <!-- Basic Dropdown -->
    <text x="20" y="70" font-family="system-ui, -apple-system, sans-serif" font-size="14" fill="#9ca3af">Basic Dropdown</text>
    
    <!-- Closed State -->
    <g transform="translate(20, 90)">
      <rect x="0" y="0" width="200" height="40" rx="6" fill="#374151" stroke="#4b5563" stroke-width="1"/>
      <text x="12" y="25" font-family="system-ui, -apple-system, sans-serif" font-size="14" fill="#e5e7eb">Select an option</text>
      <polyline points="180,16 185,21 190,16" fill="none" stroke="#9ca3af" stroke-width="2" stroke-linecap="round" stroke-linejoin="round"/>
    </g>
    
    <!-- Open State -->
    <g transform="translate(240, 90)">
      <rect x="0" y="0" width="200" height="40" rx="6" fill="#374151" stroke="#3b82f6" stroke-width="2"/>
      <text x="12" y="25" font-family="system-ui, -apple-system, sans-serif" font-size="14" fill="#e5e7eb">Select an option</text>
      <polyline points="180,21 185,16 190,21" fill="none" stroke="#60a5fa" stroke-width="2" stroke-linecap="round" stroke-linejoin="round"/>
      
      <!-- Dropdown Menu -->
      <g transform="translate(0, 44)">
        <rect x="0" y="0" width="200" height="160" rx="6" fill="#374151" filter="url(#dropdown-shadow)"/>
        <rect x="8" y="8" width="184" height="32" rx="4" fill="#1e3a8a" fill-opacity="0.3"/>
        <text x="16" y="28" font-family="system-ui, -apple-system, sans-serif" font-size="14" fill="#93c5fd">Option 1</text>
        <text x="16" y="60" font-family="system-ui, -apple-system, sans-serif" font-size="14" fill="#e5e7eb">Option 2</text>
        <text x="16" y="92" font-family="system-ui, -apple-system, sans-serif" font-size="14" fill="#e5e7eb">Option 3</text>
        <text x="16" y="124" font-family="system-ui, -apple-system, sans-serif" font-size="14" fill="#e5e7eb">Option 4</text>
        <line x1="8" y1="140" x2="192" y2="140" stroke="#4b5563" stroke-width="1"/>
        <text x="16" y="156" font-family="system-ui, -apple-system, sans-serif" font-size="14" fill="#ef4444">Delete</text>
      </g>
    </g>
    
    <!-- Dropdown with Icons -->
    <text x="20" y="320" font-family="system-ui, -apple-system, sans-serif" font-size="14" fill="#9ca3af">Dropdown with Icons</text>
    
    <g transform="translate(20, 340)">
      <rect x="0" y="0" width="240" height="40" rx="6" fill="#374151" stroke="#3b82f6" stroke-width="2"/>
      <circle cx="20" cy="20" r="8" fill="#3b82f6"/>
      <text x="40" y="25" font-family="system-ui, -apple-system, sans-serif" font-size="14" fill="#e5e7eb">Project Alpha</text>
      <polyline points="220,21 225,16 230,21" fill="none" stroke="#60a5fa" stroke-width="2" stroke-linecap="round" stroke-linejoin="round"/>
      
      <!-- Dropdown Menu with Icons -->
      <g transform="translate(0, 44)">
        <rect x="0" y="0" width="240" height="144" rx="6" fill="#374151" filter="url(#dropdown-shadow)"/>
        
        <!-- Option 1 -->
        <rect x="8" y="8" width="224" height="32" rx="4" fill="#1e3a8a" fill-opacity="0.3"/>
        <circle cx="24" cy="24" r="8" fill="#3b82f6"/>
        <text x="44" y="28" font-family="system-ui, -apple-system, sans-serif" font-size="14" fill="#93c5fd">Project Alpha</text>
        <text x="224" y="28" font-family="system-ui, -apple-system, sans-serif" font-size="12" fill="#9ca3af" text-anchor="end">Active</text>
        
        <!-- Option 2 -->
        <circle cx="24" cy="56" r="8" fill="#10b981"/>
        <text x="44" y="60" font-family="system-ui, -apple-system, sans-serif" font-size="14" fill="#e5e7eb">Project Beta</text>
        <text x="224" y="60" font-family="system-ui, -apple-system, sans-serif" font-size="12" fill="#9ca3af" text-anchor="end">Completed</text>
        
        <!-- Option 3 -->
        <circle cx="24" cy="88" r="8" fill="#f59e0b"/>
        <text x="44" y="92" font-family="system-ui, -apple-system, sans-serif" font-size="14" fill="#e5e7eb">Project Gamma</text>
        <text x="224" y="92" font-family="system-ui, -apple-system, sans-serif" font-size="12" fill="#9ca3af" text-anchor="end">In Progress</text>
        
        <!-- Option 4 -->
        <circle cx="24" cy="120" r="8" fill="#ef4444"/>
        <text x="44" y="124" font-family="system-ui, -apple-system, sans-serif" font-size="14" fill="#e5e7eb">Project Delta</text>
        <text x="224" y="124" font-family="system-ui, -apple-system, sans-serif" font-size="12" fill="#9ca3af" text-anchor="end">Delayed</text>
      </g>
    </g>
    
    <!-- Multi-select Dropdown -->
    <text x="20" y="530" font-family="system-ui, -apple-system, sans-serif" font-size="14" fill="#9ca3af">Multi-select Dropdown</text>
    
    <g transform="translate(20, 550)">
      <rect x="0" y="0" width="260" height="40" rx="6" fill="#374151" stroke="#3b82f6" stroke-width="2"/>
      <text x="12" y="25" font-family="system-ui, -apple-system, sans-serif" font-size="14" fill="#e5e7eb">2 items selected</text>
      <polyline points="240,21 245,16 250,21" fill="none" stroke="#60a5fa" stroke-width="2" stroke-linecap="round" stroke-linejoin="round"/>
      
      <!-- Dropdown Menu with Checkboxes -->
      <g transform="translate(0, 44)">
        <rect x="0" y="0" width="260" height="160" rx="6" fill="#374151" filter="url(#dropdown-shadow)"/>
        
        <!-- Option 1 - Checked -->
        <rect x="8" y="8" width="244" height="32" rx="4" fill="#1e3a8a" fill-opacity="0.3"/>
        <rect x="16" y="16" width="16" height="16" rx="3" fill="#3b82f6"/>
        <polyline points="20,24 23,27 28,22" fill="none" stroke="#ffffff" stroke-width="2" stroke-linecap="round" stroke-linejoin="round"/>
        <text x="40" y="28" font-family="system-ui, -apple-system, sans-serif" font-size="14" fill="#e5e7eb">Frontend Development</text>
        
        <!-- Option 2 - Checked -->
        <rect x="8" y="44" width="244" height="32" rx="4" fill="#1e3a8a" fill-opacity="0.3"/>
        <rect x="16" y="52" width="16" height="16" rx="3" fill="#3b82f6"/>
        <polyline points="20,60 23,63 28,58" fill="none" stroke="#ffffff" stroke-width="2" stroke-linecap="round" stroke-linejoin="round"/>
        <text x="40" y="64" font-family="system-ui, -apple-system, sans-serif" font-size="14" fill="#e5e7eb">Backend Development</text>
        
        <!-- Option 3 - Unchecked -->
        <rect x="16" y="88" width="16" height="16" rx="3" fill="#374151" stroke="#4b5563" stroke-width="1"/>
        <text x="40" y="100" font-family="system-ui, -apple-system, sans-serif" font-size="14" fill="#e5e7eb">UI/UX Design</text>
        
        <!-- Option 4 - Unchecked -->
        <rect x="16" y="124" width="16" height="16" rx="3" fill="#374151" stroke="#4b5563" stroke-width="1"/>
        <text x="40" y="136" font-family="system-ui, -apple-system, sans-serif" font-size="14" fill="#e5e7eb">Testing &amp; QA</text>
      </g>
    </g>
  </g>
</svg>