<?xml version="1.0" encoding="UTF-8"?>
<svg viewBox="0 0 1400 1800" xmlns="http://www.w3.org/2000/svg">
  <defs>
    <!-- Shadows -->
    <filter id="tool-shadow">
      <feDropShadow dx="0" dy="2" stdDeviation="3" flood-opacity="0.1"/>
    </filter>
    <!-- Gradient for progress -->
    <linearGradient id="progress-gradient" x1="0%" y1="0%" x2="100%" y2="0%">
      <stop offset="0%" style="stop-color:#3b82f6;stop-opacity:1" />
      <stop offset="100%" style="stop-color:#8b5cf6;stop-opacity:1" />
    </linearGradient>
  </defs>
  
  <!-- Title -->
  <text x="700" y="40" font-family="system-ui, -apple-system, sans-serif" font-size="24" font-weight="600" text-anchor="middle">Tool UI Components</text>
  
  <!-- Light Theme Container -->
  <g transform="translate(50, 80)">
    <rect x="0" y="0" width="600" height="1680" fill="#f8f9fa" stroke="#e0e0e0" stroke-width="1"/>
    <text x="300" y="30" font-family="system-ui, -apple-system, sans-serif" font-size="18" font-weight="500" text-anchor="middle">Light Theme</text>
    
    <!-- Expanded Tool Group -->
    <text x="20" y="70" font-family="system-ui, -apple-system, sans-serif" font-size="14" fill="#666666">Expanded Tool Group</text>
    
    <g transform="translate(20, 90)">
      <rect x="0" y="0" width="560" height="220" rx="8" fill="#ffffff" stroke="#e5e7eb" stroke-width="1" filter="url(#tool-shadow)"/>
      
      <!-- Header -->
      <rect x="0" y="0" width="560" height="40" rx="8 8 0 0" fill="#f3f4f6"/>
      <!-- Collapse Icon -->
      <g transform="translate(12, 12)" cursor="pointer">
        <rect x="0" y="0" width="16" height="16" rx="3" fill="#ffffff"/>
        <polyline points="4,6 8,10 12,6" fill="none" stroke="#6b7280" stroke-width="2" stroke-linecap="round" stroke-linejoin="round"/>
      </g>
      <text x="36" y="25" font-family="system-ui, -apple-system, sans-serif" font-size="14" font-weight="500" fill="#374151">Reading files (3 tools)</text>
      <circle cx="520" cy="20" r="8" fill="#10b981"/>
      <polyline points="517,20 519,22 523,18" fill="none" stroke="#ffffff" stroke-width="2" stroke-linecap="round" stroke-linejoin="round"/>
      <text x="480" y="25" font-family="system-ui, -apple-system, sans-serif" font-size="12" fill="#10b981" text-anchor="end">0.15s</text>
      
      <!-- Individual Tools -->
      <g transform="translate(0, 40)">
        <!-- Tool 1 -->
        <rect x="0" y="0" width="560" height="60" fill="#f0fdf4"/>
        <rect x="0" y="0" width="4" height="60" fill="#10b981"/>
        <g transform="translate(20, 20)">
          <circle cx="10" cy="10" r="8" fill="#10b981"/>
          <polyline points="7,10 9,12 13,8" fill="none" stroke="#ffffff" stroke-width="1.5" stroke-linecap="round" stroke-linejoin="round"/>
          <text x="28" y="14" font-family="system-ui, -apple-system, sans-serif" font-size="13" font-weight="500" fill="#374151">Read</text>
          <text x="70" y="14" font-family="monospace" font-size="12" fill="#6b7280">src/components/Button.tsx</text>
          <text x="500" y="14" font-family="system-ui, -apple-system, sans-serif" font-size="11" fill="#10b981" text-anchor="end">0.05s</text>
        </g>
      </g>
      
      <!-- Tool 2 -->
      <g transform="translate(0, 100)">
        <rect x="0" y="0" width="560" height="60" fill="#f0fdf4"/>
        <rect x="0" y="0" width="4" height="60" fill="#10b981"/>
        <g transform="translate(20, 20)">
          <circle cx="10" cy="10" r="8" fill="#10b981"/>
          <polyline points="7,10 9,12 13,8" fill="none" stroke="#ffffff" stroke-width="1.5" stroke-linecap="round" stroke-linejoin="round"/>
          <text x="28" y="14" font-family="system-ui, -apple-system, sans-serif" font-size="13" font-weight="500" fill="#374151">Read</text>
          <text x="70" y="14" font-family="monospace" font-size="12" fill="#6b7280">src/components/Card.tsx</text>
          <text x="500" y="14" font-family="system-ui, -apple-system, sans-serif" font-size="11" fill="#10b981" text-anchor="end">0.05s</text>
        </g>
      </g>
      
      <!-- Tool 3 -->
      <g transform="translate(0, 160)">
        <rect x="0" y="0" width="560" height="60" fill="#f0fdf4"/>
        <rect x="0" y="0" width="4" height="60" fill="#10b981"/>
        <g transform="translate(20, 20)">
          <circle cx="10" cy="10" r="8" fill="#10b981"/>
          <polyline points="7,10 9,12 13,8" fill="none" stroke="#ffffff" stroke-width="1.5" stroke-linecap="round" stroke-linejoin="round"/>
          <text x="28" y="14" font-family="system-ui, -apple-system, sans-serif" font-size="13" font-weight="500" fill="#374151">Read</text>
          <text x="70" y="14" font-family="monospace" font-size="12" fill="#6b7280">src/components/Modal.tsx</text>
          <text x="500" y="14" font-family="system-ui, -apple-system, sans-serif" font-size="11" fill="#10b981" text-anchor="end">0.05s</text>
        </g>
      </g>
    </g>
    
    <!-- Collapsed Tool Groups -->
    <text x="20" y="340" font-family="system-ui, -apple-system, sans-serif" font-size="14" fill="#666666">Collapsed Tool Groups</text>
    
    <!-- Collapsed Search Group -->
    <g transform="translate(20, 360)">
      <rect x="0" y="0" width="560" height="50" rx="8" fill="#ffffff" stroke="#e5e7eb" stroke-width="1" filter="url(#tool-shadow)"/>
      <rect x="0" y="0" width="4" height="50" fill="#f59e0b"/>
      
      <!-- Expand Icon -->
      <g transform="translate(12, 17)" cursor="pointer">
        <rect x="0" y="0" width="16" height="16" rx="3" fill="#fef3c7"/>
        <polyline points="6,4 10,8 6,12" fill="none" stroke="#f59e0b" stroke-width="2" stroke-linecap="round" stroke-linejoin="round"/>
      </g>
      <text x="36" y="30" font-family="system-ui, -apple-system, sans-serif" font-size="14" font-weight="500" fill="#374151">Searching files (5 tools)</text>
      <circle cx="520" cy="25" r="8" fill="#f59e0b"/>
      <polyline points="517,25 519,27 523,23" fill="none" stroke="#ffffff" stroke-width="2" stroke-linecap="round" stroke-linejoin="round"/>
      <text x="480" y="30" font-family="system-ui, -apple-system, sans-serif" font-size="12" fill="#f59e0b" text-anchor="end">0.34s</text>
    </g>
    
    <!-- Collapsed Edit Group -->
    <g transform="translate(20, 420)">
      <rect x="0" y="0" width="560" height="50" rx="8" fill="#ffffff" stroke="#e5e7eb" stroke-width="1" filter="url(#tool-shadow)"/>
      <rect x="0" y="0" width="4" height="50" fill="#3b82f6"/>
      
      <!-- Expand Icon -->
      <g transform="translate(12, 17)" cursor="pointer">
        <rect x="0" y="0" width="16" height="16" rx="3" fill="#dbeafe"/>
        <polyline points="6,4 10,8 6,12" fill="none" stroke="#3b82f6" stroke-width="2" stroke-linecap="round" stroke-linejoin="round"/>
      </g>
      <text x="36" y="30" font-family="system-ui, -apple-system, sans-serif" font-size="14" font-weight="500" fill="#374151">Editing files (3 tools)</text>
      <circle cx="520" cy="25" r="8" fill="#3b82f6"/>
      <polyline points="517,25 519,27 523,23" fill="none" stroke="#ffffff" stroke-width="2" stroke-linecap="round" stroke-linejoin="round"/>
      <text x="480" y="30" font-family="system-ui, -apple-system, sans-serif" font-size="12" fill="#3b82f6" text-anchor="end">0.22s</text>
    </g>
    
    <!-- Running Tool Group -->
    <g transform="translate(20, 480)">
      <rect x="0" y="0" width="560" height="50" rx="8" fill="#ffffff" stroke="#3b82f6" stroke-width="2" filter="url(#tool-shadow)"/>
      <rect x="0" y="0" width="4" height="50" fill="#3b82f6"/>
      
      <!-- Expand Icon -->
      <g transform="translate(12, 17)" cursor="pointer">
        <rect x="0" y="0" width="16" height="16" rx="3" fill="#dbeafe"/>
        <polyline points="6,4 10,8 6,12" fill="none" stroke="#3b82f6" stroke-width="2" stroke-linecap="round" stroke-linejoin="round"/>
      </g>
      <text x="36" y="30" font-family="system-ui, -apple-system, sans-serif" font-size="14" font-weight="500" fill="#374151">Writing files (2 tools)</text>
      <g transform="translate(490, 17)">
        <circle cx="8" cy="8" r="8" fill="#3b82f6"/>
        <circle cx="8" cy="8" r="5" fill="none" stroke="#ffffff" stroke-width="2" stroke-dasharray="6 3">
          <animateTransform attributeName="transform" type="rotate" from="0 8 8" to="360 8 8" dur="1s" repeatCount="indefinite"/>
        </circle>
      </g>
      <text x="470" y="30" font-family="system-ui, -apple-system, sans-serif" font-size="12" fill="#6b7280" text-anchor="end">0.12s</text>
    </g>
    
    <!-- Multi-Tool Execution (Collapsed) -->
    <text x="20" y="560" font-family="system-ui, -apple-system, sans-serif" font-size="14" fill="#666666">Multi-Tool Execution</text>
    
    <g transform="translate(20, 580)">
      <!-- Group 1: Reading files -->
      <rect x="0" y="0" width="560" height="50" rx="8" fill="#ffffff" stroke="#e5e7eb" stroke-width="1" filter="url(#tool-shadow)"/>
      <rect x="0" y="0" width="4" height="50" fill="#10b981"/>
      <g transform="translate(12, 17)" cursor="pointer">
        <rect x="0" y="0" width="16" height="16" rx="3" fill="#dcfce7"/>
        <polyline points="6,4 10,8 6,12" fill="none" stroke="#10b981" stroke-width="2" stroke-linecap="round" stroke-linejoin="round"/>
      </g>
      <text x="36" y="30" font-family="system-ui, -apple-system, sans-serif" font-size="14" font-weight="500" fill="#374151">Reading component files (6 tools)</text>
      <circle cx="520" cy="25" r="8" fill="#10b981"/>
      <polyline points="517,25 519,27 523,23" fill="none" stroke="#ffffff" stroke-width="2" stroke-linecap="round" stroke-linejoin="round"/>
      <text x="480" y="30" font-family="system-ui, -apple-system, sans-serif" font-size="12" fill="#10b981" text-anchor="end">0.31s</text>
      
      <!-- Group 2: Searching -->
      <g transform="translate(0, 60)">
        <rect x="0" y="0" width="560" height="50" rx="8" fill="#ffffff" stroke="#e5e7eb" stroke-width="1" filter="url(#tool-shadow)"/>
        <rect x="0" y="0" width="4" height="50" fill="#f59e0b"/>
        <g transform="translate(12, 17)" cursor="pointer">
          <rect x="0" y="0" width="16" height="16" rx="3" fill="#fef3c7"/>
          <polyline points="6,4 10,8 6,12" fill="none" stroke="#f59e0b" stroke-width="2" stroke-linecap="round" stroke-linejoin="round"/>
        </g>
        <text x="36" y="30" font-family="system-ui, -apple-system, sans-serif" font-size="14" font-weight="500" fill="#374151">Searching for patterns (4 tools)</text>
        <circle cx="520" cy="25" r="8" fill="#f59e0b"/>
        <polyline points="517,25 519,27 523,23" fill="none" stroke="#ffffff" stroke-width="2" stroke-linecap="round" stroke-linejoin="round"/>
        <text x="480" y="30" font-family="system-ui, -apple-system, sans-serif" font-size="12" fill="#f59e0b" text-anchor="end">0.28s</text>
      </g>
      
      <!-- Group 3: Editing (Running) -->
      <g transform="translate(0, 120)">
        <rect x="0" y="0" width="560" height="50" rx="8" fill="#ffffff" stroke="#3b82f6" stroke-width="2" filter="url(#tool-shadow)"/>
        <rect x="0" y="0" width="4" height="50" fill="#3b82f6"/>
        <g transform="translate(12, 17)" cursor="pointer">
          <rect x="0" y="0" width="16" height="16" rx="3" fill="#dbeafe"/>
          <polyline points="6,4 10,8 6,12" fill="none" stroke="#3b82f6" stroke-width="2" stroke-linecap="round" stroke-linejoin="round"/>
        </g>
        <text x="36" y="30" font-family="system-ui, -apple-system, sans-serif" font-size="14" font-weight="500" fill="#374151">Updating component styles (3 tools)</text>
        <g transform="translate(490, 17)">
          <circle cx="8" cy="8" r="8" fill="#3b82f6"/>
          <circle cx="8" cy="8" r="5" fill="none" stroke="#ffffff" stroke-width="2" stroke-dasharray="6 3">
            <animateTransform attributeName="transform" type="rotate" from="0 8 8" to="360 8 8" dur="1s" repeatCount="indefinite"/>
          </circle>
        </g>
        <text x="470" y="30" font-family="system-ui, -apple-system, sans-serif" font-size="12" fill="#6b7280" text-anchor="end">0.15s</text>
      </g>
      
      <!-- Group 4: Writing -->
      <g transform="translate(0, 180)">
        <rect x="0" y="0" width="560" height="50" rx="8" fill="#ffffff" stroke="#e5e7eb" stroke-width="1" filter="url(#tool-shadow)"/>
        <rect x="0" y="0" width="4" height="50" fill="#6b7280"/>
        <g transform="translate(12, 17)" cursor="pointer">
          <rect x="0" y="0" width="16" height="16" rx="3" fill="#e5e7eb"/>
          <polyline points="6,4 10,8 6,12" fill="none" stroke="#6b7280" stroke-width="2" stroke-linecap="round" stroke-linejoin="round"/>
        </g>
        <text x="36" y="30" font-family="system-ui, -apple-system, sans-serif" font-size="14" font-weight="500" fill="#374151">Writing updated files (3 tools)</text>
        <text x="480" y="30" font-family="system-ui, -apple-system, sans-serif" font-size="12" fill="#9ca3af" text-anchor="end">Pending</text>
      </g>
      
      <!-- Summary Bar -->
      <g transform="translate(0, 240)">
        <rect x="0" y="0" width="560" height="40" rx="8" fill="#f3f4f6"/>
        <text x="20" y="25" font-family="system-ui, -apple-system, sans-serif" font-size="13" fill="#374151">Progress: 13 of 16 tools completed</text>
        <rect x="400" y="16" width="140" height="8" rx="4" fill="#e5e7eb"/>
        <rect x="400" y="16" width="115" height="8" rx="4" fill="url(#progress-gradient)"/>
      </g>
    </g>
    
    <!-- Edit Tool with Inline Diff -->
    <text x="20" y="900" font-family="system-ui, -apple-system, sans-serif" font-size="14" fill="#666666">Edit Tool with Inline Diff</text>
    
    <g transform="translate(20, 920)">
      <rect x="0" y="0" width="560" height="200" rx="8" fill="#ffffff" stroke="#e5e7eb" stroke-width="1" filter="url(#tool-shadow)"/>
      
      <!-- Header -->
      <g transform="translate(16, 16)">
        <rect x="0" y="0" width="24" height="24" rx="4" fill="#3b82f6"/>
        <rect x="5" y="7" width="14" height="2" fill="#ffffff"/>
        <rect x="5" y="11" width="10" height="2" fill="#ffffff"/>
        <rect x="5" y="15" width="12" height="2" fill="#ffffff"/>
        <path d="M 17 7 L 19 5 L 21 7 L 19 9 Z" fill="#ffffff"/>
      </g>
      <text x="50" y="32" font-family="system-ui, -apple-system, sans-serif" font-size="14" font-weight="500" fill="#374151">Editing file</text>
      <circle cx="520" cy="24" r="8" fill="#3b82f6"/>
      <polyline points="517,24 519,26 523,22" fill="none" stroke="#ffffff" stroke-width="2" stroke-linecap="round" stroke-linejoin="round"/>
      
      <!-- File Path -->
      <rect x="16" y="50" width="528" height="32" rx="6" fill="#f3f4f6"/>
      <text x="24" y="70" font-family="monospace" font-size="12" fill="#6b7280">/src/components/Button.tsx</text>
      
      <!-- Inline Diff -->
      <g transform="translate(16, 95)">
        <rect x="0" y="0" width="528" height="30" rx="4" fill="#fee2e2"/>
        <text x="8" y="20" font-family="monospace" font-size="11" fill="#991b1b" text-decoration="line-through">- const buttonClass = 'px-4 py-2 bg-blue-500';</text>
      </g>
      <g transform="translate(16, 130)">
        <rect x="0" y="0" width="528" height="30" rx="4" fill="#dcfce7"/>
        <text x="8" y="20" font-family="monospace" font-size="11" fill="#166534">+ const buttonClass = 'px-4 py-2 bg-blue-600 hover:bg-blue-700';</text>
      </g>
      
      <!-- Status -->
      <text x="16" y="185" font-family="system-ui, -apple-system, sans-serif" font-size="11" fill="#3b82f6">✓ Applied 1 change</text>
    </g>
    
    <!-- Individual Tool Examples -->
    <text x="20" y="1140" font-family="system-ui, -apple-system, sans-serif" font-size="14" fill="#666666">Individual Tool Examples</text>
    
    <!-- Read Tool -->
    <g transform="translate(20, 1160)">
      <rect x="0" y="0" width="270" height="120" rx="8" fill="#ffffff" stroke="#e5e7eb" stroke-width="1" filter="url(#tool-shadow)"/>
      <rect x="0" y="0" width="4" height="120" fill="#10b981"/>
      
      <g transform="translate(16, 16)">
        <rect x="0" y="0" width="24" height="24" rx="4" fill="#10b981"/>
        <rect x="5" y="7" width="14" height="2" fill="#ffffff"/>
        <rect x="5" y="11" width="10" height="2" fill="#ffffff"/>
        <rect x="5" y="15" width="12" height="2" fill="#ffffff"/>
      </g>
      <text x="50" y="32" font-family="system-ui, -apple-system, sans-serif" font-size="13" font-weight="500" fill="#374151">Read</text>
      <text x="230" y="32" font-family="system-ui, -apple-system, sans-serif" font-size="11" fill="#10b981" text-anchor="end">0.03s</text>
      
      <text x="16" y="60" font-family="monospace" font-size="11" fill="#6b7280">src/App.tsx</text>
      <text x="16" y="80" font-family="system-ui, -apple-system, sans-serif" font-size="11" fill="#10b981">✓ 245 lines</text>
      <text x="16" y="100" font-family="system-ui, -apple-system, sans-serif" font-size="10" fill="#9ca3af">Completed</text>
    </g>
    
    <!-- Search Tool -->
    <g transform="translate(310, 1160)">
      <rect x="0" y="0" width="270" height="120" rx="8" fill="#ffffff" stroke="#e5e7eb" stroke-width="1" filter="url(#tool-shadow)"/>
      <rect x="0" y="0" width="4" height="120" fill="#f59e0b"/>
      
      <g transform="translate(16, 16)">
        <circle cx="12" cy="12" r="8" fill="none" stroke="#f59e0b" stroke-width="3"/>
        <line x1="17" y1="17" x2="22" y2="22" stroke="#f59e0b" stroke-width="3" stroke-linecap="round"/>
      </g>
      <text x="50" y="32" font-family="system-ui, -apple-system, sans-serif" font-size="13" font-weight="500" fill="#374151">Search</text>
      <text x="230" y="32" font-family="system-ui, -apple-system, sans-serif" font-size="11" fill="#f59e0b" text-anchor="end">0.28s</text>
      
      <text x="16" y="60" font-family="monospace" font-size="11" fill="#6b7280">"useState" in *.tsx</text>
      <text x="16" y="80" font-family="system-ui, -apple-system, sans-serif" font-size="11" fill="#f59e0b">8 matches</text>
      <text x="16" y="100" font-family="system-ui, -apple-system, sans-serif" font-size="10" fill="#9ca3af">4 files</text>
    </g>
    
    <!-- Write Tool -->
    <g transform="translate(20, 1300)">
      <rect x="0" y="0" width="270" height="120" rx="8" fill="#ffffff" stroke="#3b82f6" stroke-width="2" filter="url(#tool-shadow)"/>
      <rect x="0" y="0" width="4" height="120" fill="#3b82f6"/>
      
      <g transform="translate(16, 16)">
        <rect x="0" y="0" width="24" height="24" rx="4" fill="#3b82f6"/>
        <rect x="5" y="7" width="14" height="2" fill="#ffffff"/>
        <rect x="5" y="11" width="14" height="2" fill="#ffffff"/>
        <rect x="5" y="15" width="10" height="2" fill="#ffffff"/>
        <circle cx="18" cy="18" r="2" fill="#ffffff"/>
      </g>
      <text x="50" y="32" font-family="system-ui, -apple-system, sans-serif" font-size="13" font-weight="500" fill="#374151">Write</text>
      <g transform="translate(220, 20)">
        <circle cx="6" cy="6" r="6" fill="#3b82f6"/>
        <circle cx="6" cy="6" r="4" fill="none" stroke="#ffffff" stroke-width="1.5" stroke-dasharray="4 2">
          <animateTransform attributeName="transform" type="rotate" from="0 6 6" to="360 6 6" dur="1s" repeatCount="indefinite"/>
        </circle>
      </g>
      
      <text x="16" y="60" font-family="monospace" font-size="11" fill="#6b7280">src/NewComponent.tsx</text>
      <rect x="16" y="75" width="200" height="6" rx="3" fill="#e5e7eb"/>
      <rect x="16" y="75" width="140" height="6" rx="3" fill="#3b82f6"/>
      <text x="16" y="100" font-family="system-ui, -apple-system, sans-serif" font-size="10" fill="#3b82f6">Writing... 70%</text>
    </g>
    
    <!-- LS Tool -->
    <g transform="translate(310, 1300)">
      <rect x="0" y="0" width="270" height="120" rx="8" fill="#ffffff" stroke="#e5e7eb" stroke-width="1" filter="url(#tool-shadow)"/>
      <rect x="0" y="0" width="4" height="120" fill="#8b5cf6"/>
      
      <g transform="translate(16, 16)">
        <rect x="0" y="0" width="24" height="24" rx="4" fill="#8b5cf6"/>
        <rect x="7" y="6" width="10" height="2" fill="#ffffff"/>
        <rect x="7" y="11" width="10" height="2" fill="#ffffff"/>
        <rect x="7" y="16" width="10" height="2" fill="#ffffff"/>
      </g>
      <text x="50" y="32" font-family="system-ui, -apple-system, sans-serif" font-size="13" font-weight="500" fill="#374151">List</text>
      <text x="230" y="32" font-family="system-ui, -apple-system, sans-serif" font-size="11" fill="#8b5cf6" text-anchor="end">0.02s</text>
      
      <text x="16" y="60" font-family="monospace" font-size="11" fill="#6b7280">src/components/</text>
      <text x="16" y="80" font-family="system-ui, -apple-system, sans-serif" font-size="11" fill="#8b5cf6">12 items</text>
      <text x="16" y="100" font-family="system-ui, -apple-system, sans-serif" font-size="10" fill="#9ca3af">6 dirs, 6 files</text>
    </g>
  </g>
  
  <!-- Dark Theme Container -->
  <g transform="translate(750, 80)">
    <rect x="0" y="0" width="600" height="1680" fill="#111827" stroke="#374151" stroke-width="1"/>
    <text x="300" y="30" font-family="system-ui, -apple-system, sans-serif" font-size="18" font-weight="500" fill="#f3f4f6" text-anchor="middle">Dark Theme</text>
    
    <!-- Complex Multi-Tool Execution -->
    <text x="20" y="70" font-family="system-ui, -apple-system, sans-serif" font-size="14" fill="#9ca3af">Complex Multi-Tool Execution</text>
    
    <g transform="translate(20, 90)">
      <!-- Mixed Expanded/Collapsed Groups -->
      <!-- Group 1: Expanded Reading Group -->
      <rect x="0" y="0" width="560" height="160" rx="8" fill="#1f2937" stroke="#374151" stroke-width="1" filter="url(#tool-shadow)"/>
      <rect x="0" y="0" width="560" height="40" rx="8 8 0 0" fill="#374151"/>
      <rect x="0" y="0" width="4" height="160" fill="#10b981"/>
      <g transform="translate(12, 12)" cursor="pointer">
        <rect x="0" y="0" width="16" height="16" rx="3" fill="#065f46"/>
        <polyline points="4,6 8,10 12,6" fill="none" stroke="#10b981" stroke-width="2" stroke-linecap="round" stroke-linejoin="round"/>
      </g>
      <text x="36" y="25" font-family="system-ui, -apple-system, sans-serif" font-size="14" font-weight="500" fill="#f3f4f6">Reading source files (3 tools)</text>
      <circle cx="520" cy="20" r="8" fill="#10b981"/>
      <polyline points="517,20 519,22 523,18" fill="none" stroke="#ffffff" stroke-width="2" stroke-linecap="round" stroke-linejoin="round"/>
      <text x="480" y="25" font-family="system-ui, -apple-system, sans-serif" font-size="12" fill="#10b981" text-anchor="end">0.12s</text>
      
      <!-- Individual tools -->
      <g transform="translate(0, 40)">
        <rect x="16" y="10" width="528" height="30" rx="4" fill="#065f46" fill-opacity="0.2"/>
        <circle cx="30" cy="25" r="6" fill="#10b981"/>
        <polyline points="28,25 29,27 33,23" fill="none" stroke="#ffffff" stroke-width="1.5" stroke-linecap="round" stroke-linejoin="round"/>
        <text x="44" y="29" font-family="monospace" font-size="11" fill="#10b981">Read: src/App.tsx (0.04s)</text>
        
        <rect x="16" y="50" width="528" height="30" rx="4" fill="#065f46" fill-opacity="0.2"/>
        <circle cx="30" cy="65" r="6" fill="#10b981"/>
        <polyline points="28,65 29,67 33,63" fill="none" stroke="#ffffff" stroke-width="1.5" stroke-linecap="round" stroke-linejoin="round"/>
        <text x="44" y="69" font-family="monospace" font-size="11" fill="#10b981">Read: src/index.tsx (0.04s)</text>
        
        <rect x="16" y="90" width="528" height="30" rx="4" fill="#065f46" fill-opacity="0.2"/>
        <circle cx="30" cy="105" r="6" fill="#10b981"/>
        <polyline points="28,105 29,107 33,103" fill="none" stroke="#ffffff" stroke-width="1.5" stroke-linecap="round" stroke-linejoin="round"/>
        <text x="44" y="109" font-family="monospace" font-size="11" fill="#10b981">Read: src/routes.tsx (0.04s)</text>
      </g>
    </g>
    
    <!-- Group 2: Collapsed Search -->
    <g transform="translate(20, 260)">
      <rect x="0" y="0" width="560" height="50" rx="8" fill="#1f2937" stroke="#374151" stroke-width="1" filter="url(#tool-shadow)"/>
      <rect x="0" y="0" width="4" height="50" fill="#f59e0b"/>
      <g transform="translate(12, 17)" cursor="pointer">
        <rect x="0" y="0" width="16" height="16" rx="3" fill="#78350f"/>
        <polyline points="6,4 10,8 6,12" fill="none" stroke="#f59e0b" stroke-width="2" stroke-linecap="round" stroke-linejoin="round"/>
      </g>
      <text x="36" y="30" font-family="system-ui, -apple-system, sans-serif" font-size="14" font-weight="500" fill="#f3f4f6">Searching for imports (8 tools)</text>
      <circle cx="520" cy="25" r="8" fill="#f59e0b"/>
      <polyline points="517,25 519,27 523,23" fill="none" stroke="#ffffff" stroke-width="2" stroke-linecap="round" stroke-linejoin="round"/>
      <text x="480" y="30" font-family="system-ui, -apple-system, sans-serif" font-size="12" fill="#f59e0b" text-anchor="end">0.48s</text>
    </g>
    
    <!-- Group 3: Running Edit -->
    <g transform="translate(20, 320)">
      <rect x="0" y="0" width="560" height="50" rx="8" fill="#1f2937" stroke="#3b82f6" stroke-width="2" filter="url(#tool-shadow)"/>
      <rect x="0" y="0" width="4" height="50" fill="#3b82f6"/>
      <g transform="translate(12, 17)" cursor="pointer">
        <rect x="0" y="0" width="16" height="16" rx="3" fill="#1e3a8a"/>
        <polyline points="6,4 10,8 6,12" fill="none" stroke="#3b82f6" stroke-width="2" stroke-linecap="round" stroke-linejoin="round"/>
      </g>
      <text x="36" y="30" font-family="system-ui, -apple-system, sans-serif" font-size="14" font-weight="500" fill="#f3f4f6">Refactoring components (4 tools)</text>
      <g transform="translate(490, 17)">
        <circle cx="8" cy="8" r="8" fill="#3b82f6"/>
        <circle cx="8" cy="8" r="5" fill="none" stroke="#ffffff" stroke-width="2" stroke-dasharray="6 3">
          <animateTransform attributeName="transform" type="rotate" from="0 8 8" to="360 8 8" dur="1s" repeatCount="indefinite"/>
        </circle>
      </g>
      <text x="470" y="30" font-family="system-ui, -apple-system, sans-serif" font-size="12" fill="#93c5fd" text-anchor="end">2 of 4</text>
    </g>
    
    <!-- Group 4: Pending Write -->
    <g transform="translate(20, 380)">
      <rect x="0" y="0" width="560" height="50" rx="8" fill="#1f2937" stroke="#374151" stroke-width="1" filter="url(#tool-shadow)"/>
      <rect x="0" y="0" width="4" height="50" fill="#6b7280"/>
      <g transform="translate(12, 17)" cursor="pointer">
        <rect x="0" y="0" width="16" height="16" rx="3" fill="#374151"/>
        <polyline points="6,4 10,8 6,12" fill="none" stroke="#6b7280" stroke-width="2" stroke-linecap="round" stroke-linejoin="round"/>
      </g>
      <text x="36" y="30" font-family="system-ui, -apple-system, sans-serif" font-size="14" font-weight="500" fill="#9ca3af">Writing changes (4 tools)</text>
      <text x="480" y="30" font-family="system-ui, -apple-system, sans-serif" font-size="12" fill="#6b7280" text-anchor="end">Pending</text>
    </g>
    
    <!-- Group 5: Failed Group -->
    <g transform="translate(20, 440)">
      <rect x="0" y="0" width="560" height="50" rx="8" fill="#1f2937" stroke="#ef4444" stroke-width="1" filter="url(#tool-shadow)"/>
      <rect x="0" y="0" width="4" height="50" fill="#ef4444"/>
      <g transform="translate(12, 17)" cursor="pointer">
        <rect x="0" y="0" width="16" height="16" rx="3" fill="#7f1d1d"/>
        <polyline points="6,4 10,8 6,12" fill="none" stroke="#ef4444" stroke-width="2" stroke-linecap="round" stroke-linejoin="round"/>
      </g>
      <text x="36" y="30" font-family="system-ui, -apple-system, sans-serif" font-size="14" font-weight="500" fill="#f3f4f6">Testing changes (2 tools)</text>
      <circle cx="520" cy="25" r="8" fill="#ef4444"/>
      <text x="520" y="30" font-family="system-ui, -apple-system, sans-serif" font-size="14" fill="#ffffff" text-anchor="middle">!</text>
      <text x="480" y="30" font-family="system-ui, -apple-system, sans-serif" font-size="12" fill="#ef4444" text-anchor="end">Failed</text>
    </g>
    
    <!-- Edit Tool with Inline Diff (Dark) -->
    <text x="20" y="530" font-family="system-ui, -apple-system, sans-serif" font-size="14" fill="#9ca3af">Edit Tool with Inline Diff</text>
    
    <g transform="translate(20, 550)">
      <rect x="0" y="0" width="560" height="320" rx="8" fill="#1f2937" stroke="#374151" stroke-width="1" filter="url(#tool-shadow)"/>
      
      <!-- Header -->
      <g transform="translate(16, 16)">
        <rect x="0" y="0" width="24" height="24" rx="4" fill="#3b82f6"/>
        <rect x="5" y="7" width="14" height="2" fill="#ffffff"/>
        <rect x="5" y="11" width="10" height="2" fill="#ffffff"/>
        <rect x="5" y="15" width="12" height="2" fill="#ffffff"/>
        <path d="M 17 7 L 19 5 L 21 7 L 19 9 Z" fill="#ffffff"/>
      </g>
      <text x="50" y="32" font-family="system-ui, -apple-system, sans-serif" font-size="14" font-weight="500" fill="#f3f4f6">Editing file</text>
      <circle cx="520" cy="24" r="8" fill="#3b82f6"/>
      <circle cx="520" cy="24" r="5" fill="none" stroke="#ffffff" stroke-width="2" stroke-dasharray="6 3">
        <animateTransform attributeName="transform" type="rotate" from="0 520 24" to="360 520 24" dur="1s" repeatCount="indefinite"/>
      </circle>
      
      <!-- File Path -->
      <rect x="16" y="50" width="528" height="32" rx="6" fill="#374151"/>
      <text x="24" y="70" font-family="monospace" font-size="12" fill="#9ca3af">/src/components/Button.tsx</text>
      
      <!-- Inline Diff -->
      <g transform="translate(16, 95)">
        <!-- Context line -->
        <rect x="0" y="0" width="528" height="24" rx="4" fill="#1f2937"/>
        <text x="8" y="16" font-family="monospace" font-size="11" fill="#9ca3af">  import React from 'react';</text>
        
        <!-- Removed line -->
        <rect x="0" y="30" width="528" height="24" rx="4" fill="#7f1d1d" fill-opacity="0.3"/>
        <text x="8" y="46" font-family="monospace" font-size="11" fill="#ef4444" text-decoration="line-through">- import './Button.css';</text>
        
        <!-- Added line -->
        <rect x="0" y="60" width="528" height="24" rx="4" fill="#14532d" fill-opacity="0.3"/>
        <text x="8" y="76" font-family="monospace" font-size="11" fill="#10b981">+ import styles from './Button.module.css';</text>
        
        <!-- Context line -->
        <rect x="0" y="90" width="528" height="24" rx="4" fill="#1f2937"/>
        <text x="8" y="106" font-family="monospace" font-size="11" fill="#9ca3af">  </text>
        
        <!-- Removed lines -->
        <rect x="0" y="120" width="528" height="24" rx="4" fill="#7f1d1d" fill-opacity="0.3"/>
        <text x="8" y="136" font-family="monospace" font-size="11" fill="#ef4444" text-decoration="line-through">- const Button = ({ children, variant = 'primary' }) => {</text>
        
        <!-- Added lines -->
        <rect x="0" y="150" width="528" height="24" rx="4" fill="#14532d" fill-opacity="0.3"/>
        <text x="8" y="166" font-family="monospace" font-size="11" fill="#10b981">+ const Button = ({ children, variant = 'primary', size = 'medium' }) => {</text>
        
        <rect x="0" y="180" width="528" height="24" rx="4" fill="#14532d" fill-opacity="0.3"/>
        <text x="8" y="196" font-family="monospace" font-size="11" fill="#10b981">+   const className = `${styles.button} ${styles[variant]} ${styles[size]}`;</text>
      </g>
      
      <!-- Status -->
      <text x="16" y="310" font-family="system-ui, -apple-system, sans-serif" font-size="11" fill="#3b82f6">✓ Applied 3 changes</text>
    </g>
    
    <!-- Tool Error State -->
    <text x="20" y="910" font-family="system-ui, -apple-system, sans-serif" font-size="14" fill="#9ca3af">Tool Error State</text>
    
    <g transform="translate(20, 930)">
      <rect x="0" y="0" width="560" height="120" rx="8" fill="#1f2937" stroke="#ef4444" stroke-width="1" filter="url(#tool-shadow)"/>
      
      <!-- Header -->
      <rect x="0" y="0" width="560" height="40" rx="8 8 0 0" fill="#7f1d1d" fill-opacity="0.3"/>
      <circle cx="20" cy="20" r="8" fill="#ef4444"/>
      <text x="20" y="25" font-family="system-ui, -apple-system, sans-serif" font-size="14" fill="#ffffff" text-anchor="middle">!</text>
      <text x="40" y="25" font-family="system-ui, -apple-system, sans-serif" font-size="14" font-weight="500" fill="#fca5a5">Tool execution failed</text>
      
      <!-- Error Details -->
      <text x="20" y="65" font-family="system-ui, -apple-system, sans-serif" font-size="13" fill="#f87171">Error: File not found</text>
      <text x="20" y="85" font-family="monospace" font-size="12" fill="#9ca3af">/src/components/NonExistent.tsx</text>
      <text x="20" y="105" font-family="system-ui, -apple-system, sans-serif" font-size="11" fill="#9ca3af">Failed after 0.12s</text>
    </g>
    
    <!-- Tool Summary Stats -->
    <text x="20" y="1090" font-family="system-ui, -apple-system, sans-serif" font-size="14" fill="#9ca3af">Execution Summary</text>
    
    <g transform="translate(20, 1110)">
      <rect x="0" y="0" width="560" height="100" rx="8" fill="#1f2937" stroke="#374151" stroke-width="1"/>
      
      <g transform="translate(20, 20)">
        <!-- Stats Grid -->
        <rect x="0" y="0" width="125" height="60" rx="6" fill="#374151"/>
        <text x="62" y="20" font-family="system-ui, -apple-system, sans-serif" font-size="12" fill="#9ca3af" text-anchor="middle">Total Tools</text>
        <text x="62" y="45" font-family="system-ui, -apple-system, sans-serif" font-size="24" font-weight="600" fill="#f3f4f6" text-anchor="middle">23</text>
        
        <rect x="135" y="0" width="125" height="60" rx="6" fill="#374151"/>
        <text x="197" y="20" font-family="system-ui, -apple-system, sans-serif" font-size="12" fill="#10b981" text-anchor="middle">Completed</text>
        <text x="197" y="45" font-family="system-ui, -apple-system, sans-serif" font-size="24" font-weight="600" fill="#10b981" text-anchor="middle">19</text>
        
        <rect x="270" y="0" width="125" height="60" rx="6" fill="#374151"/>
        <text x="332" y="20" font-family="system-ui, -apple-system, sans-serif" font-size="12" fill="#3b82f6" text-anchor="middle">Running</text>
        <text x="332" y="45" font-family="system-ui, -apple-system, sans-serif" font-size="24" font-weight="600" fill="#3b82f6" text-anchor="middle">2</text>
        
        <rect x="405" y="0" width="125" height="60" rx="6" fill="#374151"/>
        <text x="467" y="20" font-family="system-ui, -apple-system, sans-serif" font-size="12" fill="#ef4444" text-anchor="middle">Failed</text>
        <text x="467" y="45" font-family="system-ui, -apple-system, sans-serif" font-size="24" font-weight="600" fill="#ef4444" text-anchor="middle">2</text>
      </g>
    </g>
  </g>
</svg>