<svg viewBox="0 0 1440 900" xmlns="http://www.w3.org/2000/svg">
  <!-- Work Item Editor View Mockup -->
  <defs>
    <filter id="cardShadow">
      <feDropShadow dx="0" dy="2" stdDeviation="4" flood-opacity="0.1"/>
    </filter>
    <linearGradient id="saveGradient" x1="0%" y1="0%" x2="100%" y2="100%">
      <stop offset="0%" style="stop-color:#10b981;stop-opacity:1" />
      <stop offset="100%" style="stop-color:#059669;stop-opacity:1" />
    </linearGradient>
  </defs>
  
  <!-- Background -->
  <rect width="1440" height="900" fill="#f9fafb"/>
  
  <!-- Header -->
  <rect width="1440" height="64" fill="#ffffff" filter="url(#cardShadow)"/>
  <text x="24" y="40" font-family="system-ui, -apple-system, sans-serif" font-size="20" font-weight="600">Claude Flow</text>
  
  <!-- Breadcrumb -->
  <text x="200" y="40" font-family="system-ui" font-size="14" fill="#6b7280">Projects</text>
  <text x="260" y="40" font-family="system-ui" font-size="14" fill="#6b7280">/</text>
  <text x="280" y="40" font-family="system-ui" font-size="14" fill="#6b7280">E-commerce Platform</text>
  <text x="440" y="40" font-family="system-ui" font-size="14" fill="#6b7280">/</text>
  <text x="460" y="40" font-family="system-ui" font-size="14" fill="#6b7280">Work Items</text>
  <text x="560" y="40" font-family="system-ui" font-size="14" fill="#6b7280">/</text>
  <text x="580" y="40" font-family="system-ui" font-size="14" fill="#111827">#WI-157</text>
  
  <!-- Save Status -->
  <text x="1340" y="40" font-family="system-ui" font-size="13" fill="#10b981" text-anchor="end">✓ Saved</text>
  
  <!-- Main Editor Container -->
  <g transform="translate(24, 88)">
    <rect x="0" y="0" width="1392" height="788" rx="8" fill="#ffffff" filter="url(#cardShadow)"/>
    
    <!-- Editor Header -->
    <g transform="translate(24, 24)">
      <!-- Title Input -->
      <rect x="0" y="0" width="800" height="48" rx="6" fill="#f9fafb" stroke="#e5e7eb"/>
      <text x="16" y="32" font-family="system-ui" font-size="18" font-weight="500">Add product search functionality</text>
      <line x1="350" y1="32" x2="355" y2="32" stroke="#3b82f6" stroke-width="2">
        <animate attributeName="opacity" values="1;0;1" dur="1s" repeatCount="indefinite"/>
      </line>
      
      <!-- Meta Info -->
      <g transform="translate(0, 64)">
        <rect x="0" y="0" width="80" height="28" rx="14" fill="#fee2e2"/>
        <text x="40" y="19" font-family="system-ui" font-size="12" text-anchor="middle" fill="#991b1b">High</text>
        
        <rect x="92" y="0" width="100" height="28" rx="14" fill="#dbeafe"/>
        <text x="142" y="19" font-family="system-ui" font-size="12" text-anchor="middle" fill="#1e40af">In Progress</text>
        
        <rect x="204" y="0" width="120" height="28" rx="14" fill="#e0e7ff"/>
        <text x="264" y="19" font-family="system-ui" font-size="12" text-anchor="middle" fill="#4338ca">5 Story Points</text>
        
        <text x="0" y="56" font-family="system-ui" font-size="12" fill="#6b7280">Created 2 days ago by Sarah Chen</text>
        <text x="250" y="56" font-family="system-ui" font-size="12" fill="#6b7280">•</text>
        <text x="270" y="56" font-family="system-ui" font-size="12" fill="#6b7280">Last updated 5 minutes ago</text>
      </g>
      
      <!-- Action Buttons -->
      <g transform="translate(850, 0)">
        <rect x="0" y="0" width="140" height="40" rx="6" fill="#3b82f6" cursor="pointer"/>
        <text x="70" y="26" font-family="system-ui" font-size="14" fill="#ffffff" text-anchor="middle">Request Review</text>
        
        <rect x="152" y="0" width="100" height="40" rx="6" fill="#ffffff" stroke="#e5e7eb" cursor="pointer"/>
        <text x="202" y="26" font-family="system-ui" font-size="14" text-anchor="middle">Convert</text>
        
        <rect x="264" y="0" width="100" height="40" rx="6" fill="#ffffff" stroke="#e5e7eb" cursor="pointer"/>
        <text x="314" y="26" font-family="system-ui" font-size="14" text-anchor="middle">Archive</text>
        
        <rect x="376" y="0" width="120" height="40" rx="6" fill="url(#saveGradient)" cursor="pointer"/>
        <text x="436" y="26" font-family="system-ui" font-size="14" fill="#ffffff" text-anchor="middle">Save Changes</text>
      </g>
    </g>
    
    <!-- Editor Tabs -->
    <g transform="translate(24, 140)">
      <rect x="0" y="36" width="1344" height="1" fill="#e5e7eb"/>
      <rect x="0" y="36" width="80" height="2" fill="#3b82f6"/>
      
      <text x="20" y="24" font-family="system-ui" font-size="14" font-weight="500" fill="#3b82f6" cursor="pointer">Details</text>
      <text x="120" y="24" font-family="system-ui" font-size="14" fill="#6b7280" cursor="pointer">Activity</text>
      <text x="200" y="24" font-family="system-ui" font-size="14" fill="#6b7280" cursor="pointer">Attachments</text>
      <text x="300" y="24" font-family="system-ui" font-size="14" fill="#6b7280" cursor="pointer">Related Items</text>
      <text x="420" y="24" font-family="system-ui" font-size="14" fill="#6b7280" cursor="pointer">AI Insights</text>
    </g>
    
    <!-- Main Content Area -->
    <g transform="translate(24, 200)">
      <!-- Left Column - Main Details -->
      <g transform="translate(0, 0)">
        <!-- Description -->
        <text x="0" y="0" font-family="system-ui" font-size="14" font-weight="600">Description</text>
        <rect x="0" y="16" width="800" height="160" rx="6" fill="#f9fafb" stroke="#e5e7eb"/>
        <text x="16" y="40" font-family="system-ui" font-size="14">Implement a comprehensive search functionality for the product catalog that allows</text>
        <text x="16" y="60" font-family="system-ui" font-size="14">users to search by product name, description, category, and tags. The search should</text>
        <text x="16" y="80" font-family="system-ui" font-size="14">support filters for price range, availability, ratings, and other product attributes.</text>
        <text x="16" y="100" font-family="system-ui" font-size="14">Results should be paginated and sortable by relevance, price, or date added.</text>
        
        <!-- Acceptance Criteria -->
        <text x="0" y="208" font-family="system-ui" font-size="14" font-weight="600">Acceptance Criteria</text>
        <rect x="0" y="224" width="800" height="200" rx="6" fill="#f9fafb" stroke="#e5e7eb"/>
        <g transform="translate(16, 244)">
          <circle cx="8" cy="8" r="4" fill="#10b981"/>
          <text x="20" y="12" font-family="system-ui" font-size="14">Search bar prominently displayed on product pages</text>
          
          <circle cx="8" cy="32" r="4" fill="#10b981"/>
          <text x="20" y="36" font-family="system-ui" font-size="14">Real-time search suggestions as user types (min 3 characters)</text>
          
          <circle cx="8" cy="56" r="4" fill="#e5e7eb"/>
          <text x="20" y="60" font-family="system-ui" font-size="14">Filter panel with price range, categories, ratings, availability</text>
          
          <circle cx="8" cy="80" r="4" fill="#e5e7eb"/>
          <text x="20" y="84" font-family="system-ui" font-size="14">Search results display product cards with image, name, price</text>
          
          <circle cx="8" cy="104" r="4" fill="#e5e7eb"/>
          <text x="20" y="108" font-family="system-ui" font-size="14">Pagination with 20 products per page</text>
          
          <circle cx="8" cy="128" r="4" fill="#e5e7eb"/>
          <text x="20" y="132" font-family="system-ui" font-size="14">Sort options: Relevance, Price (Low-High, High-Low), Newest</text>
          
          <circle cx="8" cy="152" r="4" fill="#e5e7eb"/>
          <text x="20" y="156" font-family="system-ui" font-size="14">Mobile responsive design</text>
        </g>
        
        <!-- Technical Details -->
        <text x="0" y="456" font-family="system-ui" font-size="14" font-weight="600">Technical Details</text>
        <rect x="0" y="472" width="800" height="100" rx="6" fill="#f9fafb" stroke="#e5e7eb"/>
        <text x="16" y="496" font-family="system-ui" font-size="14">• Use Elasticsearch for full-text search capabilities</text>
        <text x="16" y="516" font-family="system-ui" font-size="14">• Implement debouncing for search input (300ms delay)</text>
        <text x="16" y="536" font-family="system-ui" font-size="14">• Cache search results for 5 minutes</text>
        <text x="16" y="556" font-family="system-ui" font-size="14">• Add analytics tracking for search terms</text>
      </g>
      
      <!-- Right Column - Metadata -->
      <g transform="translate(832, 0)">
        <!-- Assignee -->
        <rect x="0" y="0" width="512" height="120" rx="6" fill="#f9fafb"/>
        <text x="16" y="24" font-family="system-ui" font-size="14" font-weight="600">Assignee</text>
        <g transform="translate(16, 40)">
          <circle cx="24" cy="24" r="24" fill="#fbbf24"/>
          <text x="24" y="29" font-family="system-ui" font-size="16" text-anchor="middle" fill="#78350f">SC</text>
          <text x="60" y="20" font-family="system-ui" font-size="15" font-weight="500">Sarah Chen</text>
          <text x="60" y="40" font-family="system-ui" font-size="13" fill="#6b7280">Frontend Developer</text>
          <text x="400" y="30" font-family="system-ui" font-size="13" fill="#3b82f6" cursor="pointer">Change</text>
        </g>
        
        <!-- Labels -->
        <rect x="0" y="136" width="512" height="100" rx="6" fill="#f9fafb"/>
        <text x="16" y="160" font-family="system-ui" font-size="14" font-weight="600">Labels</text>
        <g transform="translate(16, 176)">
          <rect x="0" y="0" width="80" height="24" rx="12" fill="#dbeafe"/>
          <text x="40" y="16" font-family="system-ui" font-size="11" text-anchor="middle" fill="#1e40af">frontend</text>
          
          <rect x="88" y="0" width="80" height="24" rx="12" fill="#e0e7ff"/>
          <text x="128" y="16" font-family="system-ui" font-size="11" text-anchor="middle" fill="#4338ca">backend</text>
          
          <rect x="176" y="0" width="60" height="24" rx="12" fill="#dcfce7"/>
          <text x="206" y="16" font-family="system-ui" font-size="11" text-anchor="middle" fill="#065f46">search</text>
          
          <rect x="244" y="0" width="24" height="24" rx="12" fill="#ffffff" stroke="#e5e7eb" cursor="pointer"/>
          <text x="256" y="16" font-family="system-ui" font-size="14" text-anchor="middle">+</text>
        </g>
        
        <!-- Sprint -->
        <rect x="0" y="252" width="512" height="80" rx="6" fill="#f9fafb"/>
        <text x="16" y="276" font-family="system-ui" font-size="14" font-weight="600">Sprint</text>
        <rect x="16" y="288" width="480" height="32" rx="6" fill="#ffffff" stroke="#e5e7eb"/>
        <text x="28" y="308" font-family="system-ui" font-size="14">Sprint 4: E-commerce MVP</text>
        <text x="468" y="308" font-family="system-ui" font-size="14">▼</text>
        
        <!-- Due Date -->
        <rect x="0" y="348" width="512" height="80" rx="6" fill="#f9fafb"/>
        <text x="16" y="372" font-family="system-ui" font-size="14" font-weight="600">Due Date</text>
        <rect x="16" y="384" width="200" height="32" rx="6" fill="#ffffff" stroke="#e5e7eb"/>
        <text x="28" y="404" font-family="system-ui" font-size="14">📅 Dec 15, 2024</text>
        <text x="232" y="404" font-family="system-ui" font-size="12" fill="#f59e0b">In 5 days</text>
        
        <!-- Source -->
        <rect x="0" y="444" width="512" height="128" rx="6" fill="#fef3c7"/>
        <text x="16" y="468" font-family="system-ui" font-size="14" font-weight="600">Source: User Feedback</text>
        <rect x="16" y="484" width="480" height="64" rx="6" fill="#ffffff"/>
        <text x="28" y="508" font-family="system-ui" font-size="12" fill="#6b7280">Generated from feedback #FB-234</text>
        <text x="28" y="528" font-family="system-ui" font-size="12" fill="#6b7280">"Search is hard to find and doesn't work well"</text>
        <text x="420" y="528" font-family="system-ui" font-size="12" fill="#3b82f6" cursor="pointer">View →</text>
      </g>
    </g>
  </g>
  
  <!-- Floating Action: Request AI Review -->
  <g transform="translate(1200, 780)">
    <rect x="0" y="0" width="216" height="48" rx="24" fill="#8b5cf6" filter="url(#cardShadow)" cursor="pointer"/>
    <circle cx="24" cy="24" r="16" fill="#ffffff" opacity="0.2"/>
    <text x="24" y="29" font-family="system-ui" font-size="16" text-anchor="middle">🤖</text>
    <text x="120" y="30" font-family="system-ui" font-size="14" fill="#ffffff" text-anchor="middle">Request AI Review</text>
  </g>
</svg>