<svg viewBox="0 0 1440 900" xmlns="http://www.w3.org/2000/svg">
  <!-- Project Detail View Mockup -->
  <defs>
    <filter id="cardShadow">
      <feDropShadow dx="0" dy="2" stdDeviation="4" flood-opacity="0.1"/>
    </filter>
    <linearGradient id="progressGradient" x1="0%" y1="0%" x2="100%" y2="0%">
      <stop offset="0%" style="stop-color:#3b82f6;stop-opacity:1" />
      <stop offset="70%" style="stop-color:#3b82f6;stop-opacity:1" />
      <stop offset="70%" style="stop-color:#e5e7eb;stop-opacity:1" />
      <stop offset="100%" style="stop-color:#e5e7eb;stop-opacity:1" />
    </linearGradient>
  </defs>
  
  <!-- Background -->
  <rect width="1440" height="900" fill="#f9fafb"/>
  
  <!-- Header -->
  <rect width="1440" height="64" fill="#ffffff" filter="url(#cardShadow)"/>
  <text x="24" y="40" font-family="system-ui, -apple-system, sans-serif" font-size="20" font-weight="600">Claude Flow</text>
  
  <!-- Breadcrumb -->
  <text x="200" y="40" font-family="system-ui" font-size="14" fill="#6b7280">Dashboard</text>
  <text x="280" y="40" font-family="system-ui" font-size="14" fill="#6b7280">/</text>
  <text x="300" y="40" font-family="system-ui" font-size="14" fill="#6b7280">Projects</text>
  <text x="360" y="40" font-family="system-ui" font-size="14" fill="#6b7280">/</text>
  <text x="380" y="40" font-family="system-ui" font-size="14" fill="#111827">E-commerce Platform</text>
  
  <!-- Project Header -->
  <g transform="translate(24, 88)">
    <rect x="0" y="0" width="1392" height="120" rx="8" fill="#ffffff" filter="url(#cardShadow)"/>
    
    <!-- Project Info -->
    <text x="20" y="36" font-family="system-ui" font-size="24" font-weight="700">E-commerce Platform</text>
    <rect x="20" y="48" width="60" height="24" rx="12" fill="#dbeafe"/>
    <text x="50" y="64" font-family="system-ui" font-size="12" fill="#1e40af" text-anchor="middle">Active</text>
    
    <text x="20" y="92" font-family="system-ui" font-size="14" fill="#6b7280">Modern e-commerce solution with React and Node.js</text>
    
    <!-- Progress -->
    <g transform="translate(800, 20)">
      <text x="0" y="16" font-family="system-ui" font-size="12" fill="#6b7280">Overall Progress</text>
      <rect x="0" y="24" width="200" height="8" rx="4" fill="url(#progressGradient)"/>
      <text x="0" y="48" font-family="system-ui" font-size="20" font-weight="600">70%</text>
      <text x="0" y="68" font-family="system-ui" font-size="12" fill="#6b7280">14 of 20 tasks completed</text>
    </g>
    
    <!-- Actions -->
    <g transform="translate(1080, 36)">
      <rect x="0" y="0" width="140" height="36" rx="6" fill="#3b82f6" cursor="pointer"/>
      <text x="70" y="24" font-family="system-ui" font-size="14" fill="#ffffff" text-anchor="middle">Start Claude Session</text>
      
      <rect x="152" y="0" width="100" height="36" rx="6" fill="#ffffff" stroke="#e5e7eb" cursor="pointer"/>
      <text x="202" y="24" font-family="system-ui" font-size="14" text-anchor="middle">Edit</text>
      
      <rect x="264" y="0" width="40" height="36" rx="6" fill="#ffffff" stroke="#e5e7eb" cursor="pointer"/>
      <text x="284" y="24" font-family="system-ui" font-size="14" text-anchor="middle">⋮</text>
    </g>
  </g>
  
  <!-- Tabs -->
  <g transform="translate(24, 232)">
    <rect x="0" y="32" width="1392" height="1" fill="#e5e7eb"/>
    <rect x="0" y="32" width="80" height="2" fill="#3b82f6"/>
    
    <text x="20" y="20" font-family="system-ui" font-size="14" font-weight="500" fill="#3b82f6" cursor="pointer">Overview</text>
    <text x="120" y="20" font-family="system-ui" font-size="14" fill="#6b7280" cursor="pointer">Work Items</text>
    <text x="220" y="20" font-family="system-ui" font-size="14" fill="#6b7280" cursor="pointer">Claude Sessions</text>
    <text x="340" y="20" font-family="system-ui" font-size="14" fill="#6b7280" cursor="pointer">Files</text>
    <text x="400" y="20" font-family="system-ui" font-size="14" fill="#6b7280" cursor="pointer">Team</text>
    <text x="460" y="20" font-family="system-ui" font-size="14" fill="#6b7280" cursor="pointer">Settings</text>
  </g>
  
  <!-- Main Content Area -->
  <g transform="translate(24, 280)">
    <!-- Left Column -->
    <g transform="translate(0, 0)">
      <!-- Pending PRs Section -->
      <rect x="0" y="0" width="440" height="200" rx="8" fill="#ffffff" filter="url(#cardShadow)"/>
      <text x="20" y="32" font-family="system-ui" font-size="16" font-weight="600">Pending PRs to Review</text>
      
      <g transform="translate(20, 56)">
        <!-- PR 1 -->
        <rect x="0" y="0" width="400" height="56" rx="8" fill="#f9fafb" stroke="#e5e7eb"/>
        <circle cx="16" cy="28" r="4" fill="#10b981"/>
        <text x="32" y="22" font-family="system-ui" font-size="13" font-weight="500">#234 Add payment gateway integration</text>
        <text x="32" y="40" font-family="system-ui" font-size="12" fill="#6b7280">frontend • opened 2 hours ago by Mike Johnson</text>
        <rect x="320" y="16" width="60" height="24" rx="12" fill="#dcfce7"/>
        <text x="350" y="32" font-family="system-ui" font-size="11" text-anchor="middle" fill="#166534">Ready</text>
      </g>
      
      <g transform="translate(20, 120)">
        <!-- PR 2 -->
        <rect x="0" y="0" width="400" height="56" rx="8" fill="#f9fafb" stroke="#e5e7eb"/>
        <circle cx="16" cy="28" r="4" fill="#f59e0b"/>
        <text x="32" y="22" font-family="system-ui" font-size="13" font-weight="500">#233 Update API documentation</text>
        <text x="32" y="40" font-family="system-ui" font-size="12" fill="#6b7280">backend • opened 1 day ago by Sarah Chen</text>
        <rect x="320" y="16" width="60" height="24" rx="12" fill="#fef3c7"/>
        <text x="350" y="32" font-family="system-ui" font-size="11" text-anchor="middle" fill="#92400e">Draft</text>
      </g>
      
      <!-- Recent Activity -->
      <rect x="0" y="220" width="440" height="360" rx="8" fill="#ffffff" filter="url(#cardShadow)"/>
      <text x="20" y="252" font-family="system-ui" font-size="16" font-weight="600">Recent Activity</text>
      
      <g transform="translate(20, 280)">
        <!-- Activity Timeline -->
        <line x1="20" y1="0" x2="20" y2="260" stroke="#e5e7eb" stroke-width="2"/>
        
        <!-- Activity 1 -->
        <circle cx="20" cy="20" r="6" fill="#3b82f6"/>
        <text x="40" y="16" font-family="system-ui" font-size="13" font-weight="500">Claude session completed</text>
        <text x="40" y="32" font-family="system-ui" font-size="12" fill="#6b7280">API design finalized • 2 hours ago</text>
        
        <!-- Activity 2 -->
        <g transform="translate(0, 60)">
          <circle cx="20" cy="20" r="6" fill="#10b981"/>
          <text x="40" y="16" font-family="system-ui" font-size="13" font-weight="500">Work item completed</text>
          <text x="40" y="32" font-family="system-ui" font-size="12" fill="#6b7280">User authentication • 4 hours ago</text>
        </g>
        
        <!-- Activity 3 -->
        <g transform="translate(0, 120)">
          <circle cx="20" cy="20" r="6" fill="#f59e0b"/>
          <text x="40" y="16" font-family="system-ui" font-size="13" font-weight="500">New comment</text>
          <text x="40" y="32" font-family="system-ui" font-size="12" fill="#6b7280">On "Database Schema" • 6 hours ago</text>
        </g>
        
        <!-- Activity 4 -->
        <g transform="translate(0, 180)">
          <circle cx="20" cy="20" r="6" fill="#8b5cf6"/>
          <text x="40" y="16" font-family="system-ui" font-size="13" font-weight="500">File uploaded</text>
          <text x="40" y="32" font-family="system-ui" font-size="12" fill="#6b7280">mockups.fig • 1 day ago</text>
        </g>
      </g>
    </g>
    
    <!-- Center Column - Work Items -->
    <g transform="translate(460, 0)">
      <rect x="0" y="0" width="500" height="580" rx="8" fill="#ffffff" filter="url(#cardShadow)"/>
      
      <!-- Header -->
      <text x="20" y="32" font-family="system-ui" font-size="16" font-weight="600">Work Items</text>
      <rect x="380" y="12" width="100" height="32" rx="6" fill="#3b82f6" cursor="pointer"/>
      <text x="430" y="32" font-family="system-ui" font-size="13" fill="#ffffff" text-anchor="middle">+ New Item</text>
      
      <!-- Filter Pills -->
      <g transform="translate(20, 56)">
        <rect x="0" y="0" width="60" height="28" rx="14" fill="#3b82f6"/>
        <text x="30" y="19" font-family="system-ui" font-size="12" fill="#ffffff" text-anchor="middle">All (20)</text>
        
        <rect x="72" y="0" width="80" height="28" rx="14" fill="#ffffff" stroke="#e5e7eb"/>
        <text x="112" y="19" font-family="system-ui" font-size="12" fill="#6b7280" text-anchor="middle">To Do (4)</text>
        
        <rect x="164" y="0" width="100" height="28" rx="14" fill="#ffffff" stroke="#e5e7eb"/>
        <text x="214" y="19" font-family="system-ui" font-size="12" fill="#6b7280" text-anchor="middle">In Progress (2)</text>
        
        <rect x="276" y="0" width="80" height="28" rx="14" fill="#ffffff" stroke="#e5e7eb"/>
        <text x="316" y="19" font-family="system-ui" font-size="12" fill="#6b7280" text-anchor="middle">Done (14)</text>
      </g>
      
      <!-- Work Item List -->
      <g transform="translate(0, 100)">
        <!-- Item 1 - In Progress -->
        <rect x="20" y="0" width="460" height="80" rx="8" fill="#f9fafb" stroke="#e5e7eb" cursor="pointer"/>
        <circle cx="40" cy="40" r="4" fill="#3b82f6"/>
        <text x="56" y="28" font-family="system-ui" font-size="14" font-weight="500">Implement payment gateway integration</text>
        <text x="56" y="48" font-family="system-ui" font-size="12" fill="#6b7280">#WI-156 • Assigned to Mike Johnson</text>
        <rect x="380" y="28" width="80" height="24" rx="12" fill="#dbeafe"/>
        <text x="420" y="44" font-family="system-ui" font-size="11" text-anchor="middle" fill="#1e40af">In Progress</text>
        
        <!-- Item 2 - To Do -->
        <rect x="20" y="92" width="460" height="80" rx="8" fill="#f9fafb" stroke="#e5e7eb" cursor="pointer"/>
        <circle cx="40" cy="40" r="4" fill="#e5e7eb"/>
        <text x="56" y="120" font-family="system-ui" font-size="14" font-weight="500">Add product search functionality</text>
        <text x="56" y="140" font-family="system-ui" font-size="12" fill="#6b7280">#WI-157 • Unassigned</text>
        <rect x="380" y="120" width="60" height="24" rx="12" fill="#f3f4f6"/>
        <text x="410" y="136" font-family="system-ui" font-size="11" text-anchor="middle" fill="#6b7280">To Do</text>
        
        <!-- Item 3 - Done -->
        <rect x="20" y="184" width="460" height="80" rx="8" fill="#f9fafb" stroke="#e5e7eb" cursor="pointer"/>
        <circle cx="40" cy="40" r="4" fill="#10b981"/>
        <text x="56" y="212" font-family="system-ui" font-size="14" font-weight="500" text-decoration="line-through" fill="#9ca3af">Setup user authentication</text>
        <text x="56" y="232" font-family="system-ui" font-size="12" fill="#6b7280">#WI-145 • Completed by Sarah Chen</text>
        <rect x="380" y="212" width="60" height="24" rx="12" fill="#d1fae5"/>
        <text x="410" y="228" font-family="system-ui" font-size="11" text-anchor="middle" fill="#065f46">Done</text>
        
        <!-- Item 4 - Blocked -->
        <rect x="20" y="276" width="460" height="80" rx="8" fill="#fef2f2" stroke="#fecaca" cursor="pointer"/>
        <circle cx="40" cy="40" r="4" fill="#ef4444"/>
        <text x="56" y="304" font-family="system-ui" font-size="14" font-weight="500">Deploy to staging environment</text>
        <text x="56" y="324" font-family="system-ui" font-size="12" fill="#6b7280">#WI-158 • Blocked by infrastructure setup</text>
        <rect x="380" y="304" width="70" height="24" rx="12" fill="#fee2e2"/>
        <text x="415" y="320" font-family="system-ui" font-size="11" text-anchor="middle" fill="#991b1b">Blocked</text>
      </g>
      
      <text x="220" y="540" font-family="system-ui" font-size="13" fill="#3b82f6" cursor="pointer">View all 20 items →</text>
    </g>
    
    <!-- Right Column -->
    <g transform="translate(980, 0)">
      <!-- Repositories -->
      <rect x="0" y="0" width="412" height="580" rx="8" fill="#ffffff" filter="url(#cardShadow)"/>
      <text x="20" y="32" font-family="system-ui" font-size="16" font-weight="600">Repository Clones</text>
      <rect x="312" y="12" width="80" height="32" rx="6" fill="#3b82f6" cursor="pointer"/>
      <text x="352" y="32" font-family="system-ui" font-size="13" fill="#ffffff" text-anchor="middle">+ Add Repo</text>
      
      <g transform="translate(20, 60)">
        <!-- Repo 1 - Frontend -->
        <rect x="0" y="0" width="372" height="80" rx="8" fill="#f9fafb" stroke="#e5e7eb"/>
        <circle cx="20" cy="40" r="16" fill="#3b82f6"/>
        <text x="20" y="45" font-family="system-ui" font-size="14" fill="#ffffff" text-anchor="middle">⚛</text>
        <text x="48" y="26" font-family="system-ui" font-size="14" font-weight="600">ecommerce-1</text>
        <text x="48" y="42" font-family="system-ui" font-size="12" fill="#6b7280">feature/payment-integration</text>
        <text x="48" y="58" font-family="system-ui" font-size="11" fill="#9ca3af">3 staged, 2 unstaged • WI-156: Payment Gateway</text>
        <rect x="296" y="28" width="70" height="24" rx="12" fill="#dbeafe"/>
        <text x="331" y="44" font-family="system-ui" font-size="11" text-anchor="middle" fill="#1e40af">In Use</text>
        
        <!-- Repo 2 - Backend -->
        <rect x="0" y="92" width="372" height="80" rx="8" fill="#f9fafb" stroke="#e5e7eb"/>
        <circle cx="20" cy="132" r="16" fill="#10b981"/>
        <text x="20" y="137" font-family="system-ui" font-size="14" fill="#ffffff" text-anchor="middle">⚙</text>
        <text x="48" y="118" font-family="system-ui" font-size="14" font-weight="600">ecommerce-2</text>
        <text x="48" y="134" font-family="system-ui" font-size="12" fill="#6b7280">main</text>
        <text x="48" y="150" font-family="system-ui" font-size="11" fill="#9ca3af">No changes • Claude Session: API Design</text>
        <rect x="296" y="120" width="70" height="24" rx="12" fill="#fef3c7"/>
        <text x="331" y="136" font-family="system-ui" font-size="11" text-anchor="middle" fill="#92400e">Claude</text>
        
        <!-- Repo 3 - Infrastructure -->
        <rect x="0" y="184" width="372" height="80" rx="8" fill="#f9fafb" stroke="#e5e7eb"/>
        <circle cx="20" cy="224" r="16" fill="#8b5cf6"/>
        <text x="20" y="229" font-family="system-ui" font-size="14" fill="#ffffff" text-anchor="middle">☁</text>
        <text x="48" y="210" font-family="system-ui" font-size="14" font-weight="600">ecommerce-3</text>
        <text x="48" y="226" font-family="system-ui" font-size="12" fill="#6b7280">feature/staging-env</text>
        <text x="48" y="242" font-family="system-ui" font-size="11" fill="#9ca3af">1 staged, 0 unstaged • Available</text>
        <rect x="296" y="212" width="70" height="24" rx="12" fill="#dcfce7"/>
        <text x="331" y="228" font-family="system-ui" font-size="11" text-anchor="middle" fill="#166534">Available</text>
        
        <!-- Repo 4 - Mobile -->
        <rect x="0" y="276" width="372" height="80" rx="8" fill="#fef2f2" stroke="#fecaca"/>
        <circle cx="20" cy="316" r="16" fill="#f59e0b"/>
        <text x="20" y="321" font-family="system-ui" font-size="14" fill="#ffffff" text-anchor="middle">📱</text>
        <text x="48" y="302" font-family="system-ui" font-size="14" font-weight="600">ecommerce-4</text>
        <text x="48" y="318" font-family="system-ui" font-size="12" fill="#6b7280">develop</text>
        <text x="48" y="334" font-family="system-ui" font-size="11" fill="#9ca3af">No changes • Available</text>
        <rect x="296" y="304" width="70" height="24" rx="12" fill="#dcfce7"/>
        <text x="331" y="320" font-family="system-ui" font-size="11" text-anchor="middle" fill="#166534">Available</text>
      </g>
    </g>
  </g>
</svg>